<mxfile host="app.diagrams.net" agent="Mozilla/5.0 (Windows NT 10.0; Win64; x64) AppleWebKit/537.36 (KHTML, like Gecko) Chrome/137.0.0.0 Safari/537.36" version="27.1.6">
  <diagram name="PÃ¡gina-1" id="5izx1DdgRGSUQCtqVc_8">
    <mxGraphModel dx="698" dy="372" grid="1" gridSize="1" guides="1" tooltips="1" connect="1" arrows="1" fold="1" page="1" pageScale="1" pageWidth="827" pageHeight="583" math="0" shadow="0">
      <root>
        <mxCell id="0" />
        <mxCell id="1" parent="0" />
        <mxCell id="d9UF4j_F3MavGzOrVq-3-2" value="" style="rounded=0;whiteSpace=wrap;html=1;fillColor=#647687;fontColor=#ffffff;strokeColor=light-dark(#314354,#000000);" parent="1" vertex="1">
          <mxGeometry x="65" y="250.5" width="690" height="80" as="geometry" />
        </mxCell>
        <mxCell id="d9UF4j_F3MavGzOrVq-3-3" value="" style="shape=image;verticalLabelPosition=bottom;labelBackgroundColor=default;verticalAlign=top;aspect=fixed;imageAspect=0;image=data:image/png,iVBORw0KGgoAAAANSUhEUgAAAZAAAAEZCAQAAAATCbtXAAAAAnNCSVQICFXsRgQAAAAJcEhZcwAAKjsAACo7AeZ9qxYAAAAZdEVYdFNvZnR3YXJlAHd3dy5pbmtzY2FwZS5vcmeb7jwaAAARo0lEQVR42u2deZzO1R7HP48ZxowiN4xulpBdtkoLigqh0aK0SHXbRAu96r7CTbduCxVKVJeKVORWN6kwEa52kmWyJMou2Z9nCI15un8Y04xZnud7nt9yzu983uc/L/Nbvuf7eX6/3znfBSCEEEIIIYQQQgghhBBCCCGEEEIIIYQQQgghhBBCCCGEEEIIIYQQQgghhBBCCCGEEEIIIYQQQgghhBBCCCGEEEIIIYQQQog9JKMrnsIrGIauSKI5iKGchaEYh1G4ERWdPGxzLEQ4fyzCGbQ0MY6T8U4BL/4ZPZ068LnYWuDAYYTxCzrS3sQoamLpcV68D/2cOHAzbDzuwGGEsRM9aHNiDPWxqhgv3odbEj/w2mIOHEYYe9CbdidG0Ag/lODFe3FNIgeuU+KBj+qvL21PtKcl1pfixXtwueqBT8CiUg58VCL30f5Ea9piSwwv/hUt1Q79ZIwDHx2PcQ6ItnTC9jh8eAFC8kMnY1NcAgnjCZXDE+I6PbAzTh9urvJhE457PI8ynA2iGddjT9wefIv88K0EAgnjFSRzRohG3I69Av+9R36CqtgnkshkpHBWiCYMFPluGBkqJ5krPMk0pHJmiAY8LPTc7WqRWRcLnyFhZDobAkaImBCGC702jKGqJxskPtUC/IVzRHwjCWPEPjsNZb17lwtjEf7KeSK+kIx/i/31vUQ/DO4Qv2hloQ7ninhOCt4Sy2OKE0tL12G38LRr0JjzRTwlDR+I5eHY5kRP7BKeei2acc6IZ1TCbLE8nnNye/tS/Co8/Sa04bwRT6iMeWJ5OB5D2K5IXmGs8Qsu5NwR10nH1/7LAwBaY4PwMnagO+ePuErRVNpwzCSN/m5dTAv8JLyYnerpKITEpAFWCz1yD/pYdUHEYpqLf7B34Uq3L6oWlokfaf04l8SFV/714lf+y7y4sOr4RvxR9BDnk/i+aNTBq4urii/0WDcgltIlrlTawtsO53h5gZUwRyyRkcw7JI5wpXjjep331UDTMF0skfHMOyQJc61C6FMTPy40BZPFEpmYSGgxIcJU2jDC+N6/4NlymCSWyDvMOyTKyNMvvvU3/SIJY8WXPAMncKaJAoPFvvY5qvh90SEME1/2fOYdEk/8rDKVTWzA+DcV494NiUEE4lv3NoXVhbqcexKTFEwJxmqpfH36R3/Wp4lBqOy3jdN1v82IHU5iECoRGyN0jtjorHuMDDGIqvgyeDF/KlGWbAlKihLYqPFWusbpE4MIdN5RY6wR3txuXEefIPk0VMhcvdGkG6yvcIM30S8IAEtqH6hUm7ibvkFwprh6znZcYuKNpuMr5h0SDxZ5jK2/pkXFO2IQ8gqeG3G2yTdcEZ/4WzOVGISVNaBT/ay6TQziZnE030qcHoQbV+nb8HbgW4Im4VSch54YgGcxGR9jPhZjLbZhT4GxGVlYgOl4Hc9hCHqjLU4N7NNVpQ/NacFxBh86/2hph4boiYcxFctxGH8ojcNYh4/xJHqhIZICYxnrO5kl4QWxCWbixIDc/Unoin/hU2QriqKkcQDfYBSuMDz5LITHFXphnhy0X88QnhSb4X+Gp+amoBNGYQVyHRbG8SOKFXgJVxv5gxLC02K/yAzMT2fCD9KFOMXIO62JfvgI+10WxvHjEDLRH7WMerN4SewTH6NCcD9NB4o/xRbjVKPusAr64zNEPZZG4bEEfzfiDb0c3hTLYyrKB3v15lbxYt4K1DPizlJxI2Yix1dp/DmOYBZu0HqhIxXvi+Xxmg2FB69RSM1tqvk91cOz2K2JNAqOMF7WtONwBXwklsdoW7aQuyoEFJyl6b2UQQZmuf4ZntgnfCa6IqTZut6nYnk8q9k9uEoncWruZpyr3V0kow9WayyNgmMN+qKcJnarxjDW2JyPLeKg5os0uv6yuAlrDBHHsbEJAzSIUKiBJeJEiHthIS3xszgtJkOTJ8ed2GSYOI6N9bjd1w/d2lgulkdfWEoj/CDOO7zB96vujpWGiuPY+BE9OONmUBtZRv2eNMUMw8VxbMz1oSKZue8MfCONa+VlvNarVdKRg9GeVj83/auTaxqlkoHNARLHsbEdV3tkvwuwLQDrlr6tis/VelW8Jj70YOd7DzZgJRYXGOuw24Nn1lRUdd2CQdr58gWd91VvQ8QFt8zGIkzEUNyMTmhSaieLSqiL9uiDoXgN81zZr9+BXq5aMIixE56jZ2ROZbzrqCvuQyYeQTeclsDzrwa6YTDexw5Hr2yyayHkfwts9J3H6BfbeaFjux0RvI+70MzRZ14ITdAXkx0Tyhq0cMGGwY/f9hCdsgOS8DiOOOB2P+AZdHQ1yCMJbfE0VjlwrQcdX0K3JwPII0J4RmzSWS68HJyEmQm722aMQGsPbdcQj2NDwlf9NtIcm0v7ckg9kYj/GcqNEoyyOowp6OBLaHYZdMAEHEjo6r915Dfc7ioELqNS48K5B3NX7E3AvbZiOGr4bL+KGJDQs2QrzkxYHqxj4yr+VUkamMDOwzL00qYUTzKuwcIEFqETidYqx0po7nOLD3X2Qhim7FIL0UPDhJ5uWKR4P7m4S3nBfppYHq+ylqYclUqtTRP6zX1V0Zmy0FVjO2ZgiWIm4oNKr3esxuwZXtb6TlHcEtyKO7WvcBjCTfhF6e6GC8/Eev4e014c4rZNqVtEecxR2jd41JgaTRXxtFK505GCF0d2hPGB87DZ9X5DKUq7HvPRwDBbNsBnCvf5fJxHZ08xn2ihkGYj6VhXFh+InWYvBhj53hzCnQoVgv8Zx5HrYxW7UvqFmz1PkxW+PTJR3WBr1sF88R3HSlFjX2Ofqe1a1+yJ4vq39xtfn6kMHhHGmeWiTynHa4X1wtnZgcvo1M5SHd+IJTIg5lGHCuWxCi0DYs+O2CZM0L20hCO1VWi72ZEO7TxV8aXDayS9hUWmpwUqVihd+Kq1D42KOUpncQnATTiHzuwOlTBHLJERJX5Mt8ch0bbZ8MBtZyVjrEgiPxdp1dMdO4TzscHTCGfrSMN0sUTGFRvGUF+UvJqNqwJq0QdEsWezC9myl0IqbRM6sbukYIpYIhOKpOamYpkoZ/vsAFu0hyg8/un8v7tNHC33PerSgd2nHN4QS+Sd40KpJVFXG9Aw4BZth3Cctlid/wSQpyR8G6y2mzqThLHi6ZlRoHLIDQJ5rPQ9u8MLzsTOOGzxVn5gzWCx/T83vNWoYYQwXDxF8/PqCDYTvFIstSYF9Axsj7H/0y/f9sMUbM9UWs8ZovgrdkHcOwArPCipppNESl622Ig2Dj29iYeovgdXwfS4aqDbVl+jTQlxWvOQnvc/ymJSwt9/xENuV1hJqQMghLvxW4w+GjZWZ+pUZG8oF4/m7/+kYLJYHhNtaLupM9eK1+LX5K3ENEVWKdG6tq7X9yoUXbCrQICJyh7UeKbS+s9V4tTcdXm9MVIwvNhtst/FGSVB4rF8O3yHOvn/qhLFMJKptHrQRSEeqE3+S0XRT/a+VlszhKn4A3/gjQLfDlXxBXMFTaadQkRph7y/TT8un3Ck9dasgC8LJTNVx9dieTxEp9SL1gnkJIQwAAfz5PEFPyqBQhkvtVzLxSGe0hw/iVNzr8j/6yZYjj+wG7VpyEI0UMjm7EOzBXEyU/EiOtOICf/oXE6z6Usthcoa/Wm2El9bN4hfW7vTbHqTrvBBOYhmc3jhg2gMlySdoIu4quWfS+dEcyphtlgio7ipVYCeCpuvzWg2c0jDB2KJvMKwiDyuUwjfaUyzmYVKYN0U9qgAcIc4ADSrQEgKMYZkjBNL5F3rQ7NVunsxldZQkjBGoU+ezck9/xDb6zOH+0MSTwnhKXZajdtW8jTmTFSkk9n30vCN0cWpVZ+2L2rTo55oL5HFlr1Xq5RS+g/K07WCwq3ilZkVFhU5S8V/HSjGR4xGpUxmUyssUwEfiuUxmtuqwaObQqHlMwNvlZPwqUJB8BDdKYh0Eqfmbsa5gbZINcdbShCjaYst4pagFwXWGjXwnTg54D46UbCRtwvbiYxAWqI2lovl0ZcOFHwa4Qdx3uH1gbOCSmPU3nQeO1BpWXxzoCzQUqG1dg86jj3UxBLx68U9gbn78xW+xC6m09hFOr6ydP2mPbYJ73sbLqDD2MdJmKsgEdN3ALqKU2k34iw6i51UxCdiiTxv9B7y1eJU2rWWxBOQYknFNLFEXjU2NfcWcUTaStSjk9hNObwplshUI+NY78Q+cSot60wSJOFlsUQ+Mi4TQh7yv9C6DlukBEJ4Ruw+s3CiQff3hPj+FjCVltjhQkGXP+FLiMcvkO+x7Sax4zO2HN6yZAmCeEKwFkLtWsQmnhCcrTSVbdDnmEpLYhGMYAw7A2mIJ5gfzmdvKCbxBLMDwu0O5ieeYG5KEdPBiCeYmZTKhGLiGSplDe7y9YpbKXSLz+BEE1XMKowjL2r0CzpykkkimFNaTaUs3jmcYJIoZhTnZGFV4hsq5Z1f8HRPmqW5ia/o3SCAzR2I7+jbYobtgYgWqDQpm+F6S1A2mCPaoFubS7YoJdqh0ii5iktPtDEaPtGI9chfaha58M6fjHHi63iXqbTEC+4Qrxp9jzqOXkEKJovl8TrbbhKvuE6877AGjR07exo+EMtjPFNpiZf0FKfmrkMzR85cCbPF8hjFVFriNV3Eqbmb0Cbhs1bFF8wVJGbQDlvF0bMdEjpjOr4Wy2MQJ4r4RWtsEOdfdFc+Wy0sFQff9+ckET9pjp/EqbmXK52pgUKGYx9OEPEbbxxXRYhXcHKIDtTCMpdffVorpNJexokhulDd1Y9n7xcDCHEY95Zfu4hTaZ1YTibEYSphjlgiI2Nu4F2lsCF5BieD6EgapjscAnKtryEthDiMs0GEt/seFEmIw5TFJLFE3ik2DF0eVv8tU2mJ/iRhrAOJTEO0ScwixGFCGCZ27/kFUmFVUnvnoTINT8xhsNjFP897AjjzBCJEc9S+IfQtL0SIw9ym0BJUXsNxAlNpianISoJGkINcZGtc4pQQh+ked1HpCHIQRRS52K9xkWxCHKZzXLFUERxBNG/EKxGm0pJA0DZmNG5BeRwdBzRu1EOIw5TeGi27iDxiScTvVm+EOExjrClRHrnFyCOKKH7TuFkoIQ5TfHvm/SXKoySJ6NJumhCHKdo1N7tUeRQnke24hIYkQeUULCrk7rHkEUW00L7IFrSlEUmQqYLP8t39YBzyiOL3/P+/Hq1pQBJ0/qytmxOXQKJsu0nsIi0v4upInAKJIIyVqEfDEVsoj6kigSxBDRqN2ERZTMDhuORxBF8jnQYjtpGEKXEJ5EecTGMRGwnhy5jy2EV5EJufIgtjrF+xjA+x/FtkaSnyOJ0GIraTiuUlyKMRjUMIcAKyishjH5rQMIQce4pMLxSXtRq1aRRCCtICk7AMK/AhMphpTgghJP8rYxCmYYEDYw5GozkNSoJEBSwWl4MrbexCJxqVBIeHHJVHGGEsp1FJcHjXcYGEUY1mJUFhlgsCqUuzEgqEAiEUCAVCKBAKhBAKhBAKhBAKhBCvGO+4PHYV21mdEA8I4SI8gMccHJNxyOGR5ej1FRz3ogVdgJRMZWS68EJ0MM4KWPGNHERcuMY/xxgk0RFI8bzpktNFcMChke2qOI6OgXQEUhzVsc8D99N/rKArkOI4l+LIGyl0BlKUdpRG3uAqGaFAKBDikEAqR+pmxztOiVAgxCKBNMqemxOJSsbq3G4HKBBihUAqRLKOyOQRiUaie6Kt91MgxAKBXPubXB6RaCT6wmEKhFggkIcPqQkkM4cCIRYI5BFFgcymQAgFQoEQCoQCIYQCoUAIBUKBEAqEAiGeCWTIQTWBzKRAiA0CueKAmkBGHKJAiAUCSQ5/rhBqsj1aL5sCIRYIBOFqkQm/b86NXxw7opk5Lc2OxKJASPwCORbwHu8oy3wQYp9AmDBFyFmUBsIIYw+S6QykKGnYTnkgjHl0BVI8D1Ie2IuL6AikeEK4H1utlsdqZNANSGmUR1O0tHQ0QBk6ACGEEEIIIYQQQgghhBBCCCGEEEIIIYQQQgghRAf+D+cRaUR2vWp8AAAAAElFTkSuQmCC;" parent="1" vertex="1">
          <mxGeometry x="79.91" y="220" width="85" height="59.71" as="geometry" />
        </mxCell>
        <mxCell id="kPs2F_dNv8uR9kxLxlrE-3" value="" style="shape=image;verticalLabelPosition=bottom;labelBackgroundColor=default;verticalAlign=top;aspect=fixed;imageAspect=0;image=data:image/png,iVBORw0KGgoAAAANSUhEUgAAAZAAAAEZCAQAAAATCbtXAAAAAnNCSVQICFXsRgQAAAAJcEhZcwAAKjsAACo7AeZ9qxYAAAAZdEVYdFNvZnR3YXJlAHd3dy5pbmtzY2FwZS5vcmeb7jwaAAARo0lEQVR42u2deZzO1R7HP48ZxowiN4xulpBdtkoLigqh0aK0SHXbRAu96r7CTbduCxVKVJeKVORWN6kwEa52kmWyJMou2Z9nCI15un8Y04xZnud7nt9yzu983uc/L/Nbvuf7eX6/3znfBSCEEEIIIYQQQgghhBBCCCGEEEIIIYQQQgghhBBCCCGEEEIIIYQQQgghhBBCCCGEEEIIIYQQQgghhBBCCCGEEEIIIYQQQog9JKMrnsIrGIauSKI5iKGchaEYh1G4ERWdPGxzLEQ4fyzCGbQ0MY6T8U4BL/4ZPZ068LnYWuDAYYTxCzrS3sQoamLpcV68D/2cOHAzbDzuwGGEsRM9aHNiDPWxqhgv3odbEj/w2mIOHEYYe9CbdidG0Ag/lODFe3FNIgeuU+KBj+qvL21PtKcl1pfixXtwueqBT8CiUg58VCL30f5Ea9piSwwv/hUt1Q79ZIwDHx2PcQ6ItnTC9jh8eAFC8kMnY1NcAgnjCZXDE+I6PbAzTh9urvJhE457PI8ynA2iGddjT9wefIv88K0EAgnjFSRzRohG3I69Av+9R36CqtgnkshkpHBWiCYMFPluGBkqJ5krPMk0pHJmiAY8LPTc7WqRWRcLnyFhZDobAkaImBCGC702jKGqJxskPtUC/IVzRHwjCWPEPjsNZb17lwtjEf7KeSK+kIx/i/31vUQ/DO4Qv2hloQ7ninhOCt4Sy2OKE0tL12G38LRr0JjzRTwlDR+I5eHY5kRP7BKeei2acc6IZ1TCbLE8nnNye/tS/Co8/Sa04bwRT6iMeWJ5OB5D2K5IXmGs8Qsu5NwR10nH1/7LAwBaY4PwMnagO+ePuErRVNpwzCSN/m5dTAv8JLyYnerpKITEpAFWCz1yD/pYdUHEYpqLf7B34Uq3L6oWlokfaf04l8SFV/714lf+y7y4sOr4RvxR9BDnk/i+aNTBq4urii/0WDcgltIlrlTawtsO53h5gZUwRyyRkcw7JI5wpXjjep331UDTMF0skfHMOyQJc61C6FMTPy40BZPFEpmYSGgxIcJU2jDC+N6/4NlymCSWyDvMOyTKyNMvvvU3/SIJY8WXPAMncKaJAoPFvvY5qvh90SEME1/2fOYdEk/8rDKVTWzA+DcV494NiUEE4lv3NoXVhbqcexKTFEwJxmqpfH36R3/Wp4lBqOy3jdN1v82IHU5iECoRGyN0jtjorHuMDDGIqvgyeDF/KlGWbAlKihLYqPFWusbpE4MIdN5RY6wR3txuXEefIPk0VMhcvdGkG6yvcIM30S8IAEtqH6hUm7ibvkFwprh6znZcYuKNpuMr5h0SDxZ5jK2/pkXFO2IQ8gqeG3G2yTdcEZ/4WzOVGISVNaBT/ay6TQziZnE030qcHoQbV+nb8HbgW4Im4VSch54YgGcxGR9jPhZjLbZhT4GxGVlYgOl4Hc9hCHqjLU4N7NNVpQ/NacFxBh86/2hph4boiYcxFctxGH8ojcNYh4/xJHqhIZICYxnrO5kl4QWxCWbixIDc/Unoin/hU2QriqKkcQDfYBSuMDz5LITHFXphnhy0X88QnhSb4X+Gp+amoBNGYQVyHRbG8SOKFXgJVxv5gxLC02K/yAzMT2fCD9KFOMXIO62JfvgI+10WxvHjEDLRH7WMerN4SewTH6NCcD9NB4o/xRbjVKPusAr64zNEPZZG4bEEfzfiDb0c3hTLYyrKB3v15lbxYt4K1DPizlJxI2Yix1dp/DmOYBZu0HqhIxXvi+Xxmg2FB69RSM1tqvk91cOz2K2JNAqOMF7WtONwBXwklsdoW7aQuyoEFJyl6b2UQQZmuf4ZntgnfCa6IqTZut6nYnk8q9k9uEoncWruZpyr3V0kow9WayyNgmMN+qKcJnarxjDW2JyPLeKg5os0uv6yuAlrDBHHsbEJAzSIUKiBJeJEiHthIS3xszgtJkOTJ8ed2GSYOI6N9bjd1w/d2lgulkdfWEoj/CDOO7zB96vujpWGiuPY+BE9OONmUBtZRv2eNMUMw8VxbMz1oSKZue8MfCONa+VlvNarVdKRg9GeVj83/auTaxqlkoHNARLHsbEdV3tkvwuwLQDrlr6tis/VelW8Jj70YOd7DzZgJRYXGOuw24Nn1lRUdd2CQdr58gWd91VvQ8QFt8zGIkzEUNyMTmhSaieLSqiL9uiDoXgN81zZr9+BXq5aMIixE56jZ2ROZbzrqCvuQyYeQTeclsDzrwa6YTDexw5Hr2yyayHkfwts9J3H6BfbeaFjux0RvI+70MzRZ14ITdAXkx0Tyhq0cMGGwY/f9hCdsgOS8DiOOOB2P+AZdHQ1yCMJbfE0VjlwrQcdX0K3JwPII0J4RmzSWS68HJyEmQm722aMQGsPbdcQj2NDwlf9NtIcm0v7ckg9kYj/GcqNEoyyOowp6OBLaHYZdMAEHEjo6r915Dfc7ioELqNS48K5B3NX7E3AvbZiOGr4bL+KGJDQs2QrzkxYHqxj4yr+VUkamMDOwzL00qYUTzKuwcIEFqETidYqx0po7nOLD3X2Qhim7FIL0UPDhJ5uWKR4P7m4S3nBfppYHq+ylqYclUqtTRP6zX1V0Zmy0FVjO2ZgiWIm4oNKr3esxuwZXtb6TlHcEtyKO7WvcBjCTfhF6e6GC8/Eev4e014c4rZNqVtEecxR2jd41JgaTRXxtFK505GCF0d2hPGB87DZ9X5DKUq7HvPRwDBbNsBnCvf5fJxHZ08xn2ihkGYj6VhXFh+InWYvBhj53hzCnQoVgv8Zx5HrYxW7UvqFmz1PkxW+PTJR3WBr1sF88R3HSlFjX2Ofqe1a1+yJ4vq39xtfn6kMHhHGmeWiTynHa4X1wtnZgcvo1M5SHd+IJTIg5lGHCuWxCi0DYs+O2CZM0L20hCO1VWi72ZEO7TxV8aXDayS9hUWmpwUqVihd+Kq1D42KOUpncQnATTiHzuwOlTBHLJERJX5Mt8ch0bbZ8MBtZyVjrEgiPxdp1dMdO4TzscHTCGfrSMN0sUTGFRvGUF+UvJqNqwJq0QdEsWezC9myl0IqbRM6sbukYIpYIhOKpOamYpkoZ/vsAFu0hyg8/un8v7tNHC33PerSgd2nHN4QS+Sd40KpJVFXG9Aw4BZth3Cctlid/wSQpyR8G6y2mzqThLHi6ZlRoHLIDQJ5rPQ9u8MLzsTOOGzxVn5gzWCx/T83vNWoYYQwXDxF8/PqCDYTvFIstSYF9Axsj7H/0y/f9sMUbM9UWs8ZovgrdkHcOwArPCipppNESl622Ig2Dj29iYeovgdXwfS4aqDbVl+jTQlxWvOQnvc/ymJSwt9/xENuV1hJqQMghLvxW4w+GjZWZ+pUZG8oF4/m7/+kYLJYHhNtaLupM9eK1+LX5K3ENEVWKdG6tq7X9yoUXbCrQICJyh7UeKbS+s9V4tTcdXm9MVIwvNhtst/FGSVB4rF8O3yHOvn/qhLFMJKptHrQRSEeqE3+S0XRT/a+VlszhKn4A3/gjQLfDlXxBXMFTaadQkRph7y/TT8un3Ck9dasgC8LJTNVx9dieTxEp9SL1gnkJIQwAAfz5PEFPyqBQhkvtVzLxSGe0hw/iVNzr8j/6yZYjj+wG7VpyEI0UMjm7EOzBXEyU/EiOtOICf/oXE6z6Usthcoa/Wm2El9bN4hfW7vTbHqTrvBBOYhmc3jhg2gMlySdoIu4quWfS+dEcyphtlgio7ipVYCeCpuvzWg2c0jDB2KJvMKwiDyuUwjfaUyzmYVKYN0U9qgAcIc4ADSrQEgKMYZkjBNL5F3rQ7NVunsxldZQkjBGoU+ezck9/xDb6zOH+0MSTwnhKXZajdtW8jTmTFSkk9n30vCN0cWpVZ+2L2rTo55oL5HFlr1Xq5RS+g/K07WCwq3ilZkVFhU5S8V/HSjGR4xGpUxmUyssUwEfiuUxmtuqwaObQqHlMwNvlZPwqUJB8BDdKYh0Eqfmbsa5gbZINcdbShCjaYst4pagFwXWGjXwnTg54D46UbCRtwvbiYxAWqI2lovl0ZcOFHwa4Qdx3uH1gbOCSmPU3nQeO1BpWXxzoCzQUqG1dg86jj3UxBLx68U9gbn78xW+xC6m09hFOr6ydP2mPbYJ73sbLqDD2MdJmKsgEdN3ALqKU2k34iw6i51UxCdiiTxv9B7y1eJU2rWWxBOQYknFNLFEXjU2NfcWcUTaStSjk9hNObwplshUI+NY78Q+cSot60wSJOFlsUQ+Mi4TQh7yv9C6DlukBEJ4Ruw+s3CiQff3hPj+FjCVltjhQkGXP+FLiMcvkO+x7Sax4zO2HN6yZAmCeEKwFkLtWsQmnhCcrTSVbdDnmEpLYhGMYAw7A2mIJ5gfzmdvKCbxBLMDwu0O5ieeYG5KEdPBiCeYmZTKhGLiGSplDe7y9YpbKXSLz+BEE1XMKowjL2r0CzpykkkimFNaTaUs3jmcYJIoZhTnZGFV4hsq5Z1f8HRPmqW5ia/o3SCAzR2I7+jbYobtgYgWqDQpm+F6S1A2mCPaoFubS7YoJdqh0ii5iktPtDEaPtGI9chfaha58M6fjHHi63iXqbTEC+4Qrxp9jzqOXkEKJovl8TrbbhKvuE6877AGjR07exo+EMtjPFNpiZf0FKfmrkMzR85cCbPF8hjFVFriNV3Eqbmb0Cbhs1bFF8wVJGbQDlvF0bMdEjpjOr4Wy2MQJ4r4RWtsEOdfdFc+Wy0sFQff9+ckET9pjp/EqbmXK52pgUKGYx9OEPEbbxxXRYhXcHKIDtTCMpdffVorpNJexokhulDd1Y9n7xcDCHEY95Zfu4hTaZ1YTibEYSphjlgiI2Nu4F2lsCF5BieD6EgapjscAnKtryEthDiMs0GEt/seFEmIw5TFJLFE3ik2DF0eVv8tU2mJ/iRhrAOJTEO0ScwixGFCGCZ27/kFUmFVUnvnoTINT8xhsNjFP897AjjzBCJEc9S+IfQtL0SIw9ym0BJUXsNxAlNpianISoJGkINcZGtc4pQQh+ked1HpCHIQRRS52K9xkWxCHKZzXLFUERxBNG/EKxGm0pJA0DZmNG5BeRwdBzRu1EOIw5TeGi27iDxiScTvVm+EOExjrClRHrnFyCOKKH7TuFkoIQ5TfHvm/SXKoySJ6NJumhCHKdo1N7tUeRQnke24hIYkQeUULCrk7rHkEUW00L7IFrSlEUmQqYLP8t39YBzyiOL3/P+/Hq1pQBJ0/qytmxOXQKJsu0nsIi0v4upInAKJIIyVqEfDEVsoj6kigSxBDRqN2ERZTMDhuORxBF8jnQYjtpGEKXEJ5EecTGMRGwnhy5jy2EV5EJufIgtjrF+xjA+x/FtkaSnyOJ0GIraTiuUlyKMRjUMIcAKyishjH5rQMIQce4pMLxSXtRq1aRRCCtICk7AMK/AhMphpTgghJP8rYxCmYYEDYw5GozkNSoJEBSwWl4MrbexCJxqVBIeHHJVHGGEsp1FJcHjXcYGEUY1mJUFhlgsCqUuzEgqEAiEUCAVCKBAKhBAKhBAKhBAKhBCvGO+4PHYV21mdEA8I4SI8gMccHJNxyOGR5ej1FRz3ogVdgJRMZWS68EJ0MM4KWPGNHERcuMY/xxgk0RFI8bzpktNFcMChke2qOI6OgXQEUhzVsc8D99N/rKArkOI4l+LIGyl0BlKUdpRG3uAqGaFAKBDikEAqR+pmxztOiVAgxCKBNMqemxOJSsbq3G4HKBBihUAqRLKOyOQRiUaie6Kt91MgxAKBXPubXB6RaCT6wmEKhFggkIcPqQkkM4cCIRYI5BFFgcymQAgFQoEQCoQCIYQCoUAIBUKBEAqEAiGeCWTIQTWBzKRAiA0CueKAmkBGHKJAiAUCSQ5/rhBqsj1aL5sCIRYIBOFqkQm/b86NXxw7opk5Lc2OxKJASPwCORbwHu8oy3wQYp9AmDBFyFmUBsIIYw+S6QykKGnYTnkgjHl0BVI8D1Ie2IuL6AikeEK4H1utlsdqZNANSGmUR1O0tHQ0QBk6ACGEEEIIIYQQQgghhBBCCCGEEEIIIYQQQgghRAf+D+cRaUR2vWp8AAAAAElFTkSuQmCC;" vertex="1" parent="1">
          <mxGeometry x="195" y="220" width="85" height="59.71" as="geometry" />
        </mxCell>
        <mxCell id="kPs2F_dNv8uR9kxLxlrE-4" value="" style="shape=image;verticalLabelPosition=bottom;labelBackgroundColor=default;verticalAlign=top;aspect=fixed;imageAspect=0;image=data:image/png,iVBORw0KGgoAAAANSUhEUgAAAZAAAAEZCAQAAAATCbtXAAAAAnNCSVQICFXsRgQAAAAJcEhZcwAAKjsAACo7AeZ9qxYAAAAZdEVYdFNvZnR3YXJlAHd3dy5pbmtzY2FwZS5vcmeb7jwaAAARo0lEQVR42u2deZzO1R7HP48ZxowiN4xulpBdtkoLigqh0aK0SHXbRAu96r7CTbduCxVKVJeKVORWN6kwEa52kmWyJMou2Z9nCI15un8Y04xZnud7nt9yzu983uc/L/Nbvuf7eX6/3znfBSCEEEIIIYQQQgghhBBCCCGEEEIIIYQQQgghhBBCCCGEEEIIIYQQQgghhBBCCCGEEEIIIYQQQgghhBBCCCGEEEIIIYQQQog9JKMrnsIrGIauSKI5iKGchaEYh1G4ERWdPGxzLEQ4fyzCGbQ0MY6T8U4BL/4ZPZ068LnYWuDAYYTxCzrS3sQoamLpcV68D/2cOHAzbDzuwGGEsRM9aHNiDPWxqhgv3odbEj/w2mIOHEYYe9CbdidG0Ag/lODFe3FNIgeuU+KBj+qvL21PtKcl1pfixXtwueqBT8CiUg58VCL30f5Ea9piSwwv/hUt1Q79ZIwDHx2PcQ6ItnTC9jh8eAFC8kMnY1NcAgnjCZXDE+I6PbAzTh9urvJhE457PI8ynA2iGddjT9wefIv88K0EAgnjFSRzRohG3I69Av+9R36CqtgnkshkpHBWiCYMFPluGBkqJ5krPMk0pHJmiAY8LPTc7WqRWRcLnyFhZDobAkaImBCGC702jKGqJxskPtUC/IVzRHwjCWPEPjsNZb17lwtjEf7KeSK+kIx/i/31vUQ/DO4Qv2hloQ7ninhOCt4Sy2OKE0tL12G38LRr0JjzRTwlDR+I5eHY5kRP7BKeei2acc6IZ1TCbLE8nnNye/tS/Co8/Sa04bwRT6iMeWJ5OB5D2K5IXmGs8Qsu5NwR10nH1/7LAwBaY4PwMnagO+ePuErRVNpwzCSN/m5dTAv8JLyYnerpKITEpAFWCz1yD/pYdUHEYpqLf7B34Uq3L6oWlokfaf04l8SFV/714lf+y7y4sOr4RvxR9BDnk/i+aNTBq4urii/0WDcgltIlrlTawtsO53h5gZUwRyyRkcw7JI5wpXjjep331UDTMF0skfHMOyQJc61C6FMTPy40BZPFEpmYSGgxIcJU2jDC+N6/4NlymCSWyDvMOyTKyNMvvvU3/SIJY8WXPAMncKaJAoPFvvY5qvh90SEME1/2fOYdEk/8rDKVTWzA+DcV494NiUEE4lv3NoXVhbqcexKTFEwJxmqpfH36R3/Wp4lBqOy3jdN1v82IHU5iECoRGyN0jtjorHuMDDGIqvgyeDF/KlGWbAlKihLYqPFWusbpE4MIdN5RY6wR3txuXEefIPk0VMhcvdGkG6yvcIM30S8IAEtqH6hUm7ibvkFwprh6znZcYuKNpuMr5h0SDxZ5jK2/pkXFO2IQ8gqeG3G2yTdcEZ/4WzOVGISVNaBT/ay6TQziZnE030qcHoQbV+nb8HbgW4Im4VSch54YgGcxGR9jPhZjLbZhT4GxGVlYgOl4Hc9hCHqjLU4N7NNVpQ/NacFxBh86/2hph4boiYcxFctxGH8ojcNYh4/xJHqhIZICYxnrO5kl4QWxCWbixIDc/Unoin/hU2QriqKkcQDfYBSuMDz5LITHFXphnhy0X88QnhSb4X+Gp+amoBNGYQVyHRbG8SOKFXgJVxv5gxLC02K/yAzMT2fCD9KFOMXIO62JfvgI+10WxvHjEDLRH7WMerN4SewTH6NCcD9NB4o/xRbjVKPusAr64zNEPZZG4bEEfzfiDb0c3hTLYyrKB3v15lbxYt4K1DPizlJxI2Yix1dp/DmOYBZu0HqhIxXvi+Xxmg2FB69RSM1tqvk91cOz2K2JNAqOMF7WtONwBXwklsdoW7aQuyoEFJyl6b2UQQZmuf4ZntgnfCa6IqTZut6nYnk8q9k9uEoncWruZpyr3V0kow9WayyNgmMN+qKcJnarxjDW2JyPLeKg5os0uv6yuAlrDBHHsbEJAzSIUKiBJeJEiHthIS3xszgtJkOTJ8ed2GSYOI6N9bjd1w/d2lgulkdfWEoj/CDOO7zB96vujpWGiuPY+BE9OONmUBtZRv2eNMUMw8VxbMz1oSKZue8MfCONa+VlvNarVdKRg9GeVj83/auTaxqlkoHNARLHsbEdV3tkvwuwLQDrlr6tis/VelW8Jj70YOd7DzZgJRYXGOuw24Nn1lRUdd2CQdr58gWd91VvQ8QFt8zGIkzEUNyMTmhSaieLSqiL9uiDoXgN81zZr9+BXq5aMIixE56jZ2ROZbzrqCvuQyYeQTeclsDzrwa6YTDexw5Hr2yyayHkfwts9J3H6BfbeaFjux0RvI+70MzRZ14ITdAXkx0Tyhq0cMGGwY/f9hCdsgOS8DiOOOB2P+AZdHQ1yCMJbfE0VjlwrQcdX0K3JwPII0J4RmzSWS68HJyEmQm722aMQGsPbdcQj2NDwlf9NtIcm0v7ckg9kYj/GcqNEoyyOowp6OBLaHYZdMAEHEjo6r915Dfc7ioELqNS48K5B3NX7E3AvbZiOGr4bL+KGJDQs2QrzkxYHqxj4yr+VUkamMDOwzL00qYUTzKuwcIEFqETidYqx0po7nOLD3X2Qhim7FIL0UPDhJ5uWKR4P7m4S3nBfppYHq+ylqYclUqtTRP6zX1V0Zmy0FVjO2ZgiWIm4oNKr3esxuwZXtb6TlHcEtyKO7WvcBjCTfhF6e6GC8/Eev4e014c4rZNqVtEecxR2jd41JgaTRXxtFK505GCF0d2hPGB87DZ9X5DKUq7HvPRwDBbNsBnCvf5fJxHZ08xn2ihkGYj6VhXFh+InWYvBhj53hzCnQoVgv8Zx5HrYxW7UvqFmz1PkxW+PTJR3WBr1sF88R3HSlFjX2Ofqe1a1+yJ4vq39xtfn6kMHhHGmeWiTynHa4X1wtnZgcvo1M5SHd+IJTIg5lGHCuWxCi0DYs+O2CZM0L20hCO1VWi72ZEO7TxV8aXDayS9hUWmpwUqVihd+Kq1D42KOUpncQnATTiHzuwOlTBHLJERJX5Mt8ch0bbZ8MBtZyVjrEgiPxdp1dMdO4TzscHTCGfrSMN0sUTGFRvGUF+UvJqNqwJq0QdEsWezC9myl0IqbRM6sbukYIpYIhOKpOamYpkoZ/vsAFu0hyg8/un8v7tNHC33PerSgd2nHN4QS+Sd40KpJVFXG9Aw4BZth3Cctlid/wSQpyR8G6y2mzqThLHi6ZlRoHLIDQJ5rPQ9u8MLzsTOOGzxVn5gzWCx/T83vNWoYYQwXDxF8/PqCDYTvFIstSYF9Axsj7H/0y/f9sMUbM9UWs8ZovgrdkHcOwArPCipppNESl622Ig2Dj29iYeovgdXwfS4aqDbVl+jTQlxWvOQnvc/ymJSwt9/xENuV1hJqQMghLvxW4w+GjZWZ+pUZG8oF4/m7/+kYLJYHhNtaLupM9eK1+LX5K3ENEVWKdG6tq7X9yoUXbCrQICJyh7UeKbS+s9V4tTcdXm9MVIwvNhtst/FGSVB4rF8O3yHOvn/qhLFMJKptHrQRSEeqE3+S0XRT/a+VlszhKn4A3/gjQLfDlXxBXMFTaadQkRph7y/TT8un3Ck9dasgC8LJTNVx9dieTxEp9SL1gnkJIQwAAfz5PEFPyqBQhkvtVzLxSGe0hw/iVNzr8j/6yZYjj+wG7VpyEI0UMjm7EOzBXEyU/EiOtOICf/oXE6z6Usthcoa/Wm2El9bN4hfW7vTbHqTrvBBOYhmc3jhg2gMlySdoIu4quWfS+dEcyphtlgio7ipVYCeCpuvzWg2c0jDB2KJvMKwiDyuUwjfaUyzmYVKYN0U9qgAcIc4ADSrQEgKMYZkjBNL5F3rQ7NVunsxldZQkjBGoU+ezck9/xDb6zOH+0MSTwnhKXZajdtW8jTmTFSkk9n30vCN0cWpVZ+2L2rTo55oL5HFlr1Xq5RS+g/K07WCwq3ilZkVFhU5S8V/HSjGR4xGpUxmUyssUwEfiuUxmtuqwaObQqHlMwNvlZPwqUJB8BDdKYh0Eqfmbsa5gbZINcdbShCjaYst4pagFwXWGjXwnTg54D46UbCRtwvbiYxAWqI2lovl0ZcOFHwa4Qdx3uH1gbOCSmPU3nQeO1BpWXxzoCzQUqG1dg86jj3UxBLx68U9gbn78xW+xC6m09hFOr6ydP2mPbYJ73sbLqDD2MdJmKsgEdN3ALqKU2k34iw6i51UxCdiiTxv9B7y1eJU2rWWxBOQYknFNLFEXjU2NfcWcUTaStSjk9hNObwplshUI+NY78Q+cSot60wSJOFlsUQ+Mi4TQh7yv9C6DlukBEJ4Ruw+s3CiQff3hPj+FjCVltjhQkGXP+FLiMcvkO+x7Sax4zO2HN6yZAmCeEKwFkLtWsQmnhCcrTSVbdDnmEpLYhGMYAw7A2mIJ5gfzmdvKCbxBLMDwu0O5ieeYG5KEdPBiCeYmZTKhGLiGSplDe7y9YpbKXSLz+BEE1XMKowjL2r0CzpykkkimFNaTaUs3jmcYJIoZhTnZGFV4hsq5Z1f8HRPmqW5ia/o3SCAzR2I7+jbYobtgYgWqDQpm+F6S1A2mCPaoFubS7YoJdqh0ii5iktPtDEaPtGI9chfaha58M6fjHHi63iXqbTEC+4Qrxp9jzqOXkEKJovl8TrbbhKvuE6877AGjR07exo+EMtjPFNpiZf0FKfmrkMzR85cCbPF8hjFVFriNV3Eqbmb0Cbhs1bFF8wVJGbQDlvF0bMdEjpjOr4Wy2MQJ4r4RWtsEOdfdFc+Wy0sFQff9+ckET9pjp/EqbmXK52pgUKGYx9OEPEbbxxXRYhXcHKIDtTCMpdffVorpNJexokhulDd1Y9n7xcDCHEY95Zfu4hTaZ1YTibEYSphjlgiI2Nu4F2lsCF5BieD6EgapjscAnKtryEthDiMs0GEt/seFEmIw5TFJLFE3ik2DF0eVv8tU2mJ/iRhrAOJTEO0ScwixGFCGCZ27/kFUmFVUnvnoTINT8xhsNjFP897AjjzBCJEc9S+IfQtL0SIw9ym0BJUXsNxAlNpianISoJGkINcZGtc4pQQh+ked1HpCHIQRRS52K9xkWxCHKZzXLFUERxBNG/EKxGm0pJA0DZmNG5BeRwdBzRu1EOIw5TeGi27iDxiScTvVm+EOExjrClRHrnFyCOKKH7TuFkoIQ5TfHvm/SXKoySJ6NJumhCHKdo1N7tUeRQnke24hIYkQeUULCrk7rHkEUW00L7IFrSlEUmQqYLP8t39YBzyiOL3/P+/Hq1pQBJ0/qytmxOXQKJsu0nsIi0v4upInAKJIIyVqEfDEVsoj6kigSxBDRqN2ERZTMDhuORxBF8jnQYjtpGEKXEJ5EecTGMRGwnhy5jy2EV5EJufIgtjrF+xjA+x/FtkaSnyOJ0GIraTiuUlyKMRjUMIcAKyishjH5rQMIQce4pMLxSXtRq1aRRCCtICk7AMK/AhMphpTgghJP8rYxCmYYEDYw5GozkNSoJEBSwWl4MrbexCJxqVBIeHHJVHGGEsp1FJcHjXcYGEUY1mJUFhlgsCqUuzEgqEAiEUCAVCKBAKhBAKhBAKhBAKhBCvGO+4PHYV21mdEA8I4SI8gMccHJNxyOGR5ej1FRz3ogVdgJRMZWS68EJ0MM4KWPGNHERcuMY/xxgk0RFI8bzpktNFcMChke2qOI6OgXQEUhzVsc8D99N/rKArkOI4l+LIGyl0BlKUdpRG3uAqGaFAKBDikEAqR+pmxztOiVAgxCKBNMqemxOJSsbq3G4HKBBihUAqRLKOyOQRiUaie6Kt91MgxAKBXPubXB6RaCT6wmEKhFggkIcPqQkkM4cCIRYI5BFFgcymQAgFQoEQCoQCIYQCoUAIBUKBEAqEAiGeCWTIQTWBzKRAiA0CueKAmkBGHKJAiAUCSQ5/rhBqsj1aL5sCIRYIBOFqkQm/b86NXxw7opk5Lc2OxKJASPwCORbwHu8oy3wQYp9AmDBFyFmUBsIIYw+S6QykKGnYTnkgjHl0BVI8D1Ie2IuL6AikeEK4H1utlsdqZNANSGmUR1O0tHQ0QBk6ACGEEEIIIYQQQgghhBBCCCGEEEIIIYQQQgghRAf+D+cRaUR2vWp8AAAAAElFTkSuQmCC;" vertex="1" parent="1">
          <mxGeometry x="310" y="220" width="85" height="59.71" as="geometry" />
        </mxCell>
        <mxCell id="kPs2F_dNv8uR9kxLxlrE-5" value="" style="shape=image;verticalLabelPosition=bottom;labelBackgroundColor=default;verticalAlign=top;aspect=fixed;imageAspect=0;image=data:image/png,iVBORw0KGgoAAAANSUhEUgAAAZAAAAEZCAQAAAATCbtXAAAAAnNCSVQICFXsRgQAAAAJcEhZcwAAKjsAACo7AeZ9qxYAAAAZdEVYdFNvZnR3YXJlAHd3dy5pbmtzY2FwZS5vcmeb7jwaAAARo0lEQVR42u2deZzO1R7HP48ZxowiN4xulpBdtkoLigqh0aK0SHXbRAu96r7CTbduCxVKVJeKVORWN6kwEa52kmWyJMou2Z9nCI15un8Y04xZnud7nt9yzu983uc/L/Nbvuf7eX6/3znfBSCEEEIIIYQQQgghhBBCCCGEEEIIIYQQQgghhBBCCCGEEEIIIYQQQgghhBBCCCGEEEIIIYQQQgghhBBCCCGEEEIIIYQQQog9JKMrnsIrGIauSKI5iKGchaEYh1G4ERWdPGxzLEQ4fyzCGbQ0MY6T8U4BL/4ZPZ068LnYWuDAYYTxCzrS3sQoamLpcV68D/2cOHAzbDzuwGGEsRM9aHNiDPWxqhgv3odbEj/w2mIOHEYYe9CbdidG0Ag/lODFe3FNIgeuU+KBj+qvL21PtKcl1pfixXtwueqBT8CiUg58VCL30f5Ea9piSwwv/hUt1Q79ZIwDHx2PcQ6ItnTC9jh8eAFC8kMnY1NcAgnjCZXDE+I6PbAzTh9urvJhE457PI8ynA2iGddjT9wefIv88K0EAgnjFSRzRohG3I69Av+9R36CqtgnkshkpHBWiCYMFPluGBkqJ5krPMk0pHJmiAY8LPTc7WqRWRcLnyFhZDobAkaImBCGC702jKGqJxskPtUC/IVzRHwjCWPEPjsNZb17lwtjEf7KeSK+kIx/i/31vUQ/DO4Qv2hloQ7ninhOCt4Sy2OKE0tL12G38LRr0JjzRTwlDR+I5eHY5kRP7BKeei2acc6IZ1TCbLE8nnNye/tS/Co8/Sa04bwRT6iMeWJ5OB5D2K5IXmGs8Qsu5NwR10nH1/7LAwBaY4PwMnagO+ePuErRVNpwzCSN/m5dTAv8JLyYnerpKITEpAFWCz1yD/pYdUHEYpqLf7B34Uq3L6oWlokfaf04l8SFV/714lf+y7y4sOr4RvxR9BDnk/i+aNTBq4urii/0WDcgltIlrlTawtsO53h5gZUwRyyRkcw7JI5wpXjjep331UDTMF0skfHMOyQJc61C6FMTPy40BZPFEpmYSGgxIcJU2jDC+N6/4NlymCSWyDvMOyTKyNMvvvU3/SIJY8WXPAMncKaJAoPFvvY5qvh90SEME1/2fOYdEk/8rDKVTWzA+DcV494NiUEE4lv3NoXVhbqcexKTFEwJxmqpfH36R3/Wp4lBqOy3jdN1v82IHU5iECoRGyN0jtjorHuMDDGIqvgyeDF/KlGWbAlKihLYqPFWusbpE4MIdN5RY6wR3txuXEefIPk0VMhcvdGkG6yvcIM30S8IAEtqH6hUm7ibvkFwprh6znZcYuKNpuMr5h0SDxZ5jK2/pkXFO2IQ8gqeG3G2yTdcEZ/4WzOVGISVNaBT/ay6TQziZnE030qcHoQbV+nb8HbgW4Im4VSch54YgGcxGR9jPhZjLbZhT4GxGVlYgOl4Hc9hCHqjLU4N7NNVpQ/NacFxBh86/2hph4boiYcxFctxGH8ojcNYh4/xJHqhIZICYxnrO5kl4QWxCWbixIDc/Unoin/hU2QriqKkcQDfYBSuMDz5LITHFXphnhy0X88QnhSb4X+Gp+amoBNGYQVyHRbG8SOKFXgJVxv5gxLC02K/yAzMT2fCD9KFOMXIO62JfvgI+10WxvHjEDLRH7WMerN4SewTH6NCcD9NB4o/xRbjVKPusAr64zNEPZZG4bEEfzfiDb0c3hTLYyrKB3v15lbxYt4K1DPizlJxI2Yix1dp/DmOYBZu0HqhIxXvi+Xxmg2FB69RSM1tqvk91cOz2K2JNAqOMF7WtONwBXwklsdoW7aQuyoEFJyl6b2UQQZmuf4ZntgnfCa6IqTZut6nYnk8q9k9uEoncWruZpyr3V0kow9WayyNgmMN+qKcJnarxjDW2JyPLeKg5os0uv6yuAlrDBHHsbEJAzSIUKiBJeJEiHthIS3xszgtJkOTJ8ed2GSYOI6N9bjd1w/d2lgulkdfWEoj/CDOO7zB96vujpWGiuPY+BE9OONmUBtZRv2eNMUMw8VxbMz1oSKZue8MfCONa+VlvNarVdKRg9GeVj83/auTaxqlkoHNARLHsbEdV3tkvwuwLQDrlr6tis/VelW8Jj70YOd7DzZgJRYXGOuw24Nn1lRUdd2CQdr58gWd91VvQ8QFt8zGIkzEUNyMTmhSaieLSqiL9uiDoXgN81zZr9+BXq5aMIixE56jZ2ROZbzrqCvuQyYeQTeclsDzrwa6YTDexw5Hr2yyayHkfwts9J3H6BfbeaFjux0RvI+70MzRZ14ITdAXkx0Tyhq0cMGGwY/f9hCdsgOS8DiOOOB2P+AZdHQ1yCMJbfE0VjlwrQcdX0K3JwPII0J4RmzSWS68HJyEmQm722aMQGsPbdcQj2NDwlf9NtIcm0v7ckg9kYj/GcqNEoyyOowp6OBLaHYZdMAEHEjo6r915Dfc7ioELqNS48K5B3NX7E3AvbZiOGr4bL+KGJDQs2QrzkxYHqxj4yr+VUkamMDOwzL00qYUTzKuwcIEFqETidYqx0po7nOLD3X2Qhim7FIL0UPDhJ5uWKR4P7m4S3nBfppYHq+ylqYclUqtTRP6zX1V0Zmy0FVjO2ZgiWIm4oNKr3esxuwZXtb6TlHcEtyKO7WvcBjCTfhF6e6GC8/Eev4e014c4rZNqVtEecxR2jd41JgaTRXxtFK505GCF0d2hPGB87DZ9X5DKUq7HvPRwDBbNsBnCvf5fJxHZ08xn2ihkGYj6VhXFh+InWYvBhj53hzCnQoVgv8Zx5HrYxW7UvqFmz1PkxW+PTJR3WBr1sF88R3HSlFjX2Ofqe1a1+yJ4vq39xtfn6kMHhHGmeWiTynHa4X1wtnZgcvo1M5SHd+IJTIg5lGHCuWxCi0DYs+O2CZM0L20hCO1VWi72ZEO7TxV8aXDayS9hUWmpwUqVihd+Kq1D42KOUpncQnATTiHzuwOlTBHLJERJX5Mt8ch0bbZ8MBtZyVjrEgiPxdp1dMdO4TzscHTCGfrSMN0sUTGFRvGUF+UvJqNqwJq0QdEsWezC9myl0IqbRM6sbukYIpYIhOKpOamYpkoZ/vsAFu0hyg8/un8v7tNHC33PerSgd2nHN4QS+Sd40KpJVFXG9Aw4BZth3Cctlid/wSQpyR8G6y2mzqThLHi6ZlRoHLIDQJ5rPQ9u8MLzsTOOGzxVn5gzWCx/T83vNWoYYQwXDxF8/PqCDYTvFIstSYF9Axsj7H/0y/f9sMUbM9UWs8ZovgrdkHcOwArPCipppNESl622Ig2Dj29iYeovgdXwfS4aqDbVl+jTQlxWvOQnvc/ymJSwt9/xENuV1hJqQMghLvxW4w+GjZWZ+pUZG8oF4/m7/+kYLJYHhNtaLupM9eK1+LX5K3ENEVWKdG6tq7X9yoUXbCrQICJyh7UeKbS+s9V4tTcdXm9MVIwvNhtst/FGSVB4rF8O3yHOvn/qhLFMJKptHrQRSEeqE3+S0XRT/a+VlszhKn4A3/gjQLfDlXxBXMFTaadQkRph7y/TT8un3Ck9dasgC8LJTNVx9dieTxEp9SL1gnkJIQwAAfz5PEFPyqBQhkvtVzLxSGe0hw/iVNzr8j/6yZYjj+wG7VpyEI0UMjm7EOzBXEyU/EiOtOICf/oXE6z6Usthcoa/Wm2El9bN4hfW7vTbHqTrvBBOYhmc3jhg2gMlySdoIu4quWfS+dEcyphtlgio7ipVYCeCpuvzWg2c0jDB2KJvMKwiDyuUwjfaUyzmYVKYN0U9qgAcIc4ADSrQEgKMYZkjBNL5F3rQ7NVunsxldZQkjBGoU+ezck9/xDb6zOH+0MSTwnhKXZajdtW8jTmTFSkk9n30vCN0cWpVZ+2L2rTo55oL5HFlr1Xq5RS+g/K07WCwq3ilZkVFhU5S8V/HSjGR4xGpUxmUyssUwEfiuUxmtuqwaObQqHlMwNvlZPwqUJB8BDdKYh0Eqfmbsa5gbZINcdbShCjaYst4pagFwXWGjXwnTg54D46UbCRtwvbiYxAWqI2lovl0ZcOFHwa4Qdx3uH1gbOCSmPU3nQeO1BpWXxzoCzQUqG1dg86jj3UxBLx68U9gbn78xW+xC6m09hFOr6ydP2mPbYJ73sbLqDD2MdJmKsgEdN3ALqKU2k34iw6i51UxCdiiTxv9B7y1eJU2rWWxBOQYknFNLFEXjU2NfcWcUTaStSjk9hNObwplshUI+NY78Q+cSot60wSJOFlsUQ+Mi4TQh7yv9C6DlukBEJ4Ruw+s3CiQff3hPj+FjCVltjhQkGXP+FLiMcvkO+x7Sax4zO2HN6yZAmCeEKwFkLtWsQmnhCcrTSVbdDnmEpLYhGMYAw7A2mIJ5gfzmdvKCbxBLMDwu0O5ieeYG5KEdPBiCeYmZTKhGLiGSplDe7y9YpbKXSLz+BEE1XMKowjL2r0CzpykkkimFNaTaUs3jmcYJIoZhTnZGFV4hsq5Z1f8HRPmqW5ia/o3SCAzR2I7+jbYobtgYgWqDQpm+F6S1A2mCPaoFubS7YoJdqh0ii5iktPtDEaPtGI9chfaha58M6fjHHi63iXqbTEC+4Qrxp9jzqOXkEKJovl8TrbbhKvuE6877AGjR07exo+EMtjPFNpiZf0FKfmrkMzR85cCbPF8hjFVFriNV3Eqbmb0Cbhs1bFF8wVJGbQDlvF0bMdEjpjOr4Wy2MQJ4r4RWtsEOdfdFc+Wy0sFQff9+ckET9pjp/EqbmXK52pgUKGYx9OEPEbbxxXRYhXcHKIDtTCMpdffVorpNJexokhulDd1Y9n7xcDCHEY95Zfu4hTaZ1YTibEYSphjlgiI2Nu4F2lsCF5BieD6EgapjscAnKtryEthDiMs0GEt/seFEmIw5TFJLFE3ik2DF0eVv8tU2mJ/iRhrAOJTEO0ScwixGFCGCZ27/kFUmFVUnvnoTINT8xhsNjFP897AjjzBCJEc9S+IfQtL0SIw9ym0BJUXsNxAlNpianISoJGkINcZGtc4pQQh+ked1HpCHIQRRS52K9xkWxCHKZzXLFUERxBNG/EKxGm0pJA0DZmNG5BeRwdBzRu1EOIw5TeGi27iDxiScTvVm+EOExjrClRHrnFyCOKKH7TuFkoIQ5TfHvm/SXKoySJ6NJumhCHKdo1N7tUeRQnke24hIYkQeUULCrk7rHkEUW00L7IFrSlEUmQqYLP8t39YBzyiOL3/P+/Hq1pQBJ0/qytmxOXQKJsu0nsIi0v4upInAKJIIyVqEfDEVsoj6kigSxBDRqN2ERZTMDhuORxBF8jnQYjtpGEKXEJ5EecTGMRGwnhy5jy2EV5EJufIgtjrF+xjA+x/FtkaSnyOJ0GIraTiuUlyKMRjUMIcAKyishjH5rQMIQce4pMLxSXtRq1aRRCCtICk7AMK/AhMphpTgghJP8rYxCmYYEDYw5GozkNSoJEBSwWl4MrbexCJxqVBIeHHJVHGGEsp1FJcHjXcYGEUY1mJUFhlgsCqUuzEgqEAiEUCAVCKBAKhBAKhBAKhBAKhBCvGO+4PHYV21mdEA8I4SI8gMccHJNxyOGR5ej1FRz3ogVdgJRMZWS68EJ0MM4KWPGNHERcuMY/xxgk0RFI8bzpktNFcMChke2qOI6OgXQEUhzVsc8D99N/rKArkOI4l+LIGyl0BlKUdpRG3uAqGaFAKBDikEAqR+pmxztOiVAgxCKBNMqemxOJSsbq3G4HKBBihUAqRLKOyOQRiUaie6Kt91MgxAKBXPubXB6RaCT6wmEKhFggkIcPqQkkM4cCIRYI5BFFgcymQAgFQoEQCoQCIYQCoUAIBUKBEAqEAiGeCWTIQTWBzKRAiA0CueKAmkBGHKJAiAUCSQ5/rhBqsj1aL5sCIRYIBOFqkQm/b86NXxw7opk5Lc2OxKJASPwCORbwHu8oy3wQYp9AmDBFyFmUBsIIYw+S6QykKGnYTnkgjHl0BVI8D1Ie2IuL6AikeEK4H1utlsdqZNANSGmUR1O0tHQ0QBk6ACGEEEIIIYQQQgghhBBCCCGEEEIIIYQQQgghRAf+D+cRaUR2vWp8AAAAAElFTkSuQmCC;" vertex="1" parent="1">
          <mxGeometry x="425" y="220" width="85" height="59.71" as="geometry" />
        </mxCell>
        <mxCell id="kPs2F_dNv8uR9kxLxlrE-6" value="" style="shape=image;verticalLabelPosition=bottom;labelBackgroundColor=default;verticalAlign=top;aspect=fixed;imageAspect=0;image=data:image/png,iVBORw0KGgoAAAANSUhEUgAAAZAAAAEZCAQAAAATCbtXAAAAAnNCSVQICFXsRgQAAAAJcEhZcwAAKjsAACo7AeZ9qxYAAAAZdEVYdFNvZnR3YXJlAHd3dy5pbmtzY2FwZS5vcmeb7jwaAAARo0lEQVR42u2deZzO1R7HP48ZxowiN4xulpBdtkoLigqh0aK0SHXbRAu96r7CTbduCxVKVJeKVORWN6kwEa52kmWyJMou2Z9nCI15un8Y04xZnud7nt9yzu983uc/L/Nbvuf7eX6/3znfBSCEEEIIIYQQQgghhBBCCCGEEEIIIYQQQgghhBBCCCGEEEIIIYQQQgghhBBCCCGEEEIIIYQQQgghhBBCCCGEEEIIIYQQQog9JKMrnsIrGIauSKI5iKGchaEYh1G4ERWdPGxzLEQ4fyzCGbQ0MY6T8U4BL/4ZPZ068LnYWuDAYYTxCzrS3sQoamLpcV68D/2cOHAzbDzuwGGEsRM9aHNiDPWxqhgv3odbEj/w2mIOHEYYe9CbdidG0Ag/lODFe3FNIgeuU+KBj+qvL21PtKcl1pfixXtwueqBT8CiUg58VCL30f5Ea9piSwwv/hUt1Q79ZIwDHx2PcQ6ItnTC9jh8eAFC8kMnY1NcAgnjCZXDE+I6PbAzTh9urvJhE457PI8ynA2iGddjT9wefIv88K0EAgnjFSRzRohG3I69Av+9R36CqtgnkshkpHBWiCYMFPluGBkqJ5krPMk0pHJmiAY8LPTc7WqRWRcLnyFhZDobAkaImBCGC702jKGqJxskPtUC/IVzRHwjCWPEPjsNZb17lwtjEf7KeSK+kIx/i/31vUQ/DO4Qv2hloQ7ninhOCt4Sy2OKE0tL12G38LRr0JjzRTwlDR+I5eHY5kRP7BKeei2acc6IZ1TCbLE8nnNye/tS/Co8/Sa04bwRT6iMeWJ5OB5D2K5IXmGs8Qsu5NwR10nH1/7LAwBaY4PwMnagO+ePuErRVNpwzCSN/m5dTAv8JLyYnerpKITEpAFWCz1yD/pYdUHEYpqLf7B34Uq3L6oWlokfaf04l8SFV/714lf+y7y4sOr4RvxR9BDnk/i+aNTBq4urii/0WDcgltIlrlTawtsO53h5gZUwRyyRkcw7JI5wpXjjep331UDTMF0skfHMOyQJc61C6FMTPy40BZPFEpmYSGgxIcJU2jDC+N6/4NlymCSWyDvMOyTKyNMvvvU3/SIJY8WXPAMncKaJAoPFvvY5qvh90SEME1/2fOYdEk/8rDKVTWzA+DcV494NiUEE4lv3NoXVhbqcexKTFEwJxmqpfH36R3/Wp4lBqOy3jdN1v82IHU5iECoRGyN0jtjorHuMDDGIqvgyeDF/KlGWbAlKihLYqPFWusbpE4MIdN5RY6wR3txuXEefIPk0VMhcvdGkG6yvcIM30S8IAEtqH6hUm7ibvkFwprh6znZcYuKNpuMr5h0SDxZ5jK2/pkXFO2IQ8gqeG3G2yTdcEZ/4WzOVGISVNaBT/ay6TQziZnE030qcHoQbV+nb8HbgW4Im4VSch54YgGcxGR9jPhZjLbZhT4GxGVlYgOl4Hc9hCHqjLU4N7NNVpQ/NacFxBh86/2hph4boiYcxFctxGH8ojcNYh4/xJHqhIZICYxnrO5kl4QWxCWbixIDc/Unoin/hU2QriqKkcQDfYBSuMDz5LITHFXphnhy0X88QnhSb4X+Gp+amoBNGYQVyHRbG8SOKFXgJVxv5gxLC02K/yAzMT2fCD9KFOMXIO62JfvgI+10WxvHjEDLRH7WMerN4SewTH6NCcD9NB4o/xRbjVKPusAr64zNEPZZG4bEEfzfiDb0c3hTLYyrKB3v15lbxYt4K1DPizlJxI2Yix1dp/DmOYBZu0HqhIxXvi+Xxmg2FB69RSM1tqvk91cOz2K2JNAqOMF7WtONwBXwklsdoW7aQuyoEFJyl6b2UQQZmuf4ZntgnfCa6IqTZut6nYnk8q9k9uEoncWruZpyr3V0kow9WayyNgmMN+qKcJnarxjDW2JyPLeKg5os0uv6yuAlrDBHHsbEJAzSIUKiBJeJEiHthIS3xszgtJkOTJ8ed2GSYOI6N9bjd1w/d2lgulkdfWEoj/CDOO7zB96vujpWGiuPY+BE9OONmUBtZRv2eNMUMw8VxbMz1oSKZue8MfCONa+VlvNarVdKRg9GeVj83/auTaxqlkoHNARLHsbEdV3tkvwuwLQDrlr6tis/VelW8Jj70YOd7DzZgJRYXGOuw24Nn1lRUdd2CQdr58gWd91VvQ8QFt8zGIkzEUNyMTmhSaieLSqiL9uiDoXgN81zZr9+BXq5aMIixE56jZ2ROZbzrqCvuQyYeQTeclsDzrwa6YTDexw5Hr2yyayHkfwts9J3H6BfbeaFjux0RvI+70MzRZ14ITdAXkx0Tyhq0cMGGwY/f9hCdsgOS8DiOOOB2P+AZdHQ1yCMJbfE0VjlwrQcdX0K3JwPII0J4RmzSWS68HJyEmQm722aMQGsPbdcQj2NDwlf9NtIcm0v7ckg9kYj/GcqNEoyyOowp6OBLaHYZdMAEHEjo6r915Dfc7ioELqNS48K5B3NX7E3AvbZiOGr4bL+KGJDQs2QrzkxYHqxj4yr+VUkamMDOwzL00qYUTzKuwcIEFqETidYqx0po7nOLD3X2Qhim7FIL0UPDhJ5uWKR4P7m4S3nBfppYHq+ylqYclUqtTRP6zX1V0Zmy0FVjO2ZgiWIm4oNKr3esxuwZXtb6TlHcEtyKO7WvcBjCTfhF6e6GC8/Eev4e014c4rZNqVtEecxR2jd41JgaTRXxtFK505GCF0d2hPGB87DZ9X5DKUq7HvPRwDBbNsBnCvf5fJxHZ08xn2ihkGYj6VhXFh+InWYvBhj53hzCnQoVgv8Zx5HrYxW7UvqFmz1PkxW+PTJR3WBr1sF88R3HSlFjX2Ofqe1a1+yJ4vq39xtfn6kMHhHGmeWiTynHa4X1wtnZgcvo1M5SHd+IJTIg5lGHCuWxCi0DYs+O2CZM0L20hCO1VWi72ZEO7TxV8aXDayS9hUWmpwUqVihd+Kq1D42KOUpncQnATTiHzuwOlTBHLJERJX5Mt8ch0bbZ8MBtZyVjrEgiPxdp1dMdO4TzscHTCGfrSMN0sUTGFRvGUF+UvJqNqwJq0QdEsWezC9myl0IqbRM6sbukYIpYIhOKpOamYpkoZ/vsAFu0hyg8/un8v7tNHC33PerSgd2nHN4QS+Sd40KpJVFXG9Aw4BZth3Cctlid/wSQpyR8G6y2mzqThLHi6ZlRoHLIDQJ5rPQ9u8MLzsTOOGzxVn5gzWCx/T83vNWoYYQwXDxF8/PqCDYTvFIstSYF9Axsj7H/0y/f9sMUbM9UWs8ZovgrdkHcOwArPCipppNESl622Ig2Dj29iYeovgdXwfS4aqDbVl+jTQlxWvOQnvc/ymJSwt9/xENuV1hJqQMghLvxW4w+GjZWZ+pUZG8oF4/m7/+kYLJYHhNtaLupM9eK1+LX5K3ENEVWKdG6tq7X9yoUXbCrQICJyh7UeKbS+s9V4tTcdXm9MVIwvNhtst/FGSVB4rF8O3yHOvn/qhLFMJKptHrQRSEeqE3+S0XRT/a+VlszhKn4A3/gjQLfDlXxBXMFTaadQkRph7y/TT8un3Ck9dasgC8LJTNVx9dieTxEp9SL1gnkJIQwAAfz5PEFPyqBQhkvtVzLxSGe0hw/iVNzr8j/6yZYjj+wG7VpyEI0UMjm7EOzBXEyU/EiOtOICf/oXE6z6Usthcoa/Wm2El9bN4hfW7vTbHqTrvBBOYhmc3jhg2gMlySdoIu4quWfS+dEcyphtlgio7ipVYCeCpuvzWg2c0jDB2KJvMKwiDyuUwjfaUyzmYVKYN0U9qgAcIc4ADSrQEgKMYZkjBNL5F3rQ7NVunsxldZQkjBGoU+ezck9/xDb6zOH+0MSTwnhKXZajdtW8jTmTFSkk9n30vCN0cWpVZ+2L2rTo55oL5HFlr1Xq5RS+g/K07WCwq3ilZkVFhU5S8V/HSjGR4xGpUxmUyssUwEfiuUxmtuqwaObQqHlMwNvlZPwqUJB8BDdKYh0Eqfmbsa5gbZINcdbShCjaYst4pagFwXWGjXwnTg54D46UbCRtwvbiYxAWqI2lovl0ZcOFHwa4Qdx3uH1gbOCSmPU3nQeO1BpWXxzoCzQUqG1dg86jj3UxBLx68U9gbn78xW+xC6m09hFOr6ydP2mPbYJ73sbLqDD2MdJmKsgEdN3ALqKU2k34iw6i51UxCdiiTxv9B7y1eJU2rWWxBOQYknFNLFEXjU2NfcWcUTaStSjk9hNObwplshUI+NY78Q+cSot60wSJOFlsUQ+Mi4TQh7yv9C6DlukBEJ4Ruw+s3CiQff3hPj+FjCVltjhQkGXP+FLiMcvkO+x7Sax4zO2HN6yZAmCeEKwFkLtWsQmnhCcrTSVbdDnmEpLYhGMYAw7A2mIJ5gfzmdvKCbxBLMDwu0O5ieeYG5KEdPBiCeYmZTKhGLiGSplDe7y9YpbKXSLz+BEE1XMKowjL2r0CzpykkkimFNaTaUs3jmcYJIoZhTnZGFV4hsq5Z1f8HRPmqW5ia/o3SCAzR2I7+jbYobtgYgWqDQpm+F6S1A2mCPaoFubS7YoJdqh0ii5iktPtDEaPtGI9chfaha58M6fjHHi63iXqbTEC+4Qrxp9jzqOXkEKJovl8TrbbhKvuE6877AGjR07exo+EMtjPFNpiZf0FKfmrkMzR85cCbPF8hjFVFriNV3Eqbmb0Cbhs1bFF8wVJGbQDlvF0bMdEjpjOr4Wy2MQJ4r4RWtsEOdfdFc+Wy0sFQff9+ckET9pjp/EqbmXK52pgUKGYx9OEPEbbxxXRYhXcHKIDtTCMpdffVorpNJexokhulDd1Y9n7xcDCHEY95Zfu4hTaZ1YTibEYSphjlgiI2Nu4F2lsCF5BieD6EgapjscAnKtryEthDiMs0GEt/seFEmIw5TFJLFE3ik2DF0eVv8tU2mJ/iRhrAOJTEO0ScwixGFCGCZ27/kFUmFVUnvnoTINT8xhsNjFP897AjjzBCJEc9S+IfQtL0SIw9ym0BJUXsNxAlNpianISoJGkINcZGtc4pQQh+ked1HpCHIQRRS52K9xkWxCHKZzXLFUERxBNG/EKxGm0pJA0DZmNG5BeRwdBzRu1EOIw5TeGi27iDxiScTvVm+EOExjrClRHrnFyCOKKH7TuFkoIQ5TfHvm/SXKoySJ6NJumhCHKdo1N7tUeRQnke24hIYkQeUULCrk7rHkEUW00L7IFrSlEUmQqYLP8t39YBzyiOL3/P+/Hq1pQBJ0/qytmxOXQKJsu0nsIi0v4upInAKJIIyVqEfDEVsoj6kigSxBDRqN2ERZTMDhuORxBF8jnQYjtpGEKXEJ5EecTGMRGwnhy5jy2EV5EJufIgtjrF+xjA+x/FtkaSnyOJ0GIraTiuUlyKMRjUMIcAKyishjH5rQMIQce4pMLxSXtRq1aRRCCtICk7AMK/AhMphpTgghJP8rYxCmYYEDYw5GozkNSoJEBSwWl4MrbexCJxqVBIeHHJVHGGEsp1FJcHjXcYGEUY1mJUFhlgsCqUuzEgqEAiEUCAVCKBAKhBAKhBAKhBAKhBCvGO+4PHYV21mdEA8I4SI8gMccHJNxyOGR5ej1FRz3ogVdgJRMZWS68EJ0MM4KWPGNHERcuMY/xxgk0RFI8bzpktNFcMChke2qOI6OgXQEUhzVsc8D99N/rKArkOI4l+LIGyl0BlKUdpRG3uAqGaFAKBDikEAqR+pmxztOiVAgxCKBNMqemxOJSsbq3G4HKBBihUAqRLKOyOQRiUaie6Kt91MgxAKBXPubXB6RaCT6wmEKhFggkIcPqQkkM4cCIRYI5BFFgcymQAgFQoEQCoQCIYQCoUAIBUKBEAqEAiGeCWTIQTWBzKRAiA0CueKAmkBGHKJAiAUCSQ5/rhBqsj1aL5sCIRYIBOFqkQm/b86NXxw7opk5Lc2OxKJASPwCORbwHu8oy3wQYp9AmDBFyFmUBsIIYw+S6QykKGnYTnkgjHl0BVI8D1Ie2IuL6AikeEK4H1utlsdqZNANSGmUR1O0tHQ0QBk6ACGEEEIIIYQQQgghhBBCCCGEEEIIIYQQQgghRAf+D+cRaUR2vWp8AAAAAElFTkSuQmCC;" vertex="1" parent="1">
          <mxGeometry x="540" y="220" width="85" height="59.71" as="geometry" />
        </mxCell>
        <mxCell id="kPs2F_dNv8uR9kxLxlrE-7" value="" style="shape=image;verticalLabelPosition=bottom;labelBackgroundColor=default;verticalAlign=top;aspect=fixed;imageAspect=0;image=data:image/png,iVBORw0KGgoAAAANSUhEUgAAAZAAAAEZCAQAAAATCbtXAAAAAnNCSVQICFXsRgQAAAAJcEhZcwAAKjsAACo7AeZ9qxYAAAAZdEVYdFNvZnR3YXJlAHd3dy5pbmtzY2FwZS5vcmeb7jwaAAARo0lEQVR42u2deZzO1R7HP48ZxowiN4xulpBdtkoLigqh0aK0SHXbRAu96r7CTbduCxVKVJeKVORWN6kwEa52kmWyJMou2Z9nCI15un8Y04xZnud7nt9yzu983uc/L/Nbvuf7eX6/3znfBSCEEEIIIYQQQgghhBBCCCGEEEIIIYQQQgghhBBCCCGEEEIIIYQQQgghhBBCCCGEEEIIIYQQQgghhBBCCCGEEEIIIYQQQog9JKMrnsIrGIauSKI5iKGchaEYh1G4ERWdPGxzLEQ4fyzCGbQ0MY6T8U4BL/4ZPZ068LnYWuDAYYTxCzrS3sQoamLpcV68D/2cOHAzbDzuwGGEsRM9aHNiDPWxqhgv3odbEj/w2mIOHEYYe9CbdidG0Ag/lODFe3FNIgeuU+KBj+qvL21PtKcl1pfixXtwueqBT8CiUg58VCL30f5Ea9piSwwv/hUt1Q79ZIwDHx2PcQ6ItnTC9jh8eAFC8kMnY1NcAgnjCZXDE+I6PbAzTh9urvJhE457PI8ynA2iGddjT9wefIv88K0EAgnjFSRzRohG3I69Av+9R36CqtgnkshkpHBWiCYMFPluGBkqJ5krPMk0pHJmiAY8LPTc7WqRWRcLnyFhZDobAkaImBCGC702jKGqJxskPtUC/IVzRHwjCWPEPjsNZb17lwtjEf7KeSK+kIx/i/31vUQ/DO4Qv2hloQ7ninhOCt4Sy2OKE0tL12G38LRr0JjzRTwlDR+I5eHY5kRP7BKeei2acc6IZ1TCbLE8nnNye/tS/Co8/Sa04bwRT6iMeWJ5OB5D2K5IXmGs8Qsu5NwR10nH1/7LAwBaY4PwMnagO+ePuErRVNpwzCSN/m5dTAv8JLyYnerpKITEpAFWCz1yD/pYdUHEYpqLf7B34Uq3L6oWlokfaf04l8SFV/714lf+y7y4sOr4RvxR9BDnk/i+aNTBq4urii/0WDcgltIlrlTawtsO53h5gZUwRyyRkcw7JI5wpXjjep331UDTMF0skfHMOyQJc61C6FMTPy40BZPFEpmYSGgxIcJU2jDC+N6/4NlymCSWyDvMOyTKyNMvvvU3/SIJY8WXPAMncKaJAoPFvvY5qvh90SEME1/2fOYdEk/8rDKVTWzA+DcV494NiUEE4lv3NoXVhbqcexKTFEwJxmqpfH36R3/Wp4lBqOy3jdN1v82IHU5iECoRGyN0jtjorHuMDDGIqvgyeDF/KlGWbAlKihLYqPFWusbpE4MIdN5RY6wR3txuXEefIPk0VMhcvdGkG6yvcIM30S8IAEtqH6hUm7ibvkFwprh6znZcYuKNpuMr5h0SDxZ5jK2/pkXFO2IQ8gqeG3G2yTdcEZ/4WzOVGISVNaBT/ay6TQziZnE030qcHoQbV+nb8HbgW4Im4VSch54YgGcxGR9jPhZjLbZhT4GxGVlYgOl4Hc9hCHqjLU4N7NNVpQ/NacFxBh86/2hph4boiYcxFctxGH8ojcNYh4/xJHqhIZICYxnrO5kl4QWxCWbixIDc/Unoin/hU2QriqKkcQDfYBSuMDz5LITHFXphnhy0X88QnhSb4X+Gp+amoBNGYQVyHRbG8SOKFXgJVxv5gxLC02K/yAzMT2fCD9KFOMXIO62JfvgI+10WxvHjEDLRH7WMerN4SewTH6NCcD9NB4o/xRbjVKPusAr64zNEPZZG4bEEfzfiDb0c3hTLYyrKB3v15lbxYt4K1DPizlJxI2Yix1dp/DmOYBZu0HqhIxXvi+Xxmg2FB69RSM1tqvk91cOz2K2JNAqOMF7WtONwBXwklsdoW7aQuyoEFJyl6b2UQQZmuf4ZntgnfCa6IqTZut6nYnk8q9k9uEoncWruZpyr3V0kow9WayyNgmMN+qKcJnarxjDW2JyPLeKg5os0uv6yuAlrDBHHsbEJAzSIUKiBJeJEiHthIS3xszgtJkOTJ8ed2GSYOI6N9bjd1w/d2lgulkdfWEoj/CDOO7zB96vujpWGiuPY+BE9OONmUBtZRv2eNMUMw8VxbMz1oSKZue8MfCONa+VlvNarVdKRg9GeVj83/auTaxqlkoHNARLHsbEdV3tkvwuwLQDrlr6tis/VelW8Jj70YOd7DzZgJRYXGOuw24Nn1lRUdd2CQdr58gWd91VvQ8QFt8zGIkzEUNyMTmhSaieLSqiL9uiDoXgN81zZr9+BXq5aMIixE56jZ2ROZbzrqCvuQyYeQTeclsDzrwa6YTDexw5Hr2yyayHkfwts9J3H6BfbeaFjux0RvI+70MzRZ14ITdAXkx0Tyhq0cMGGwY/f9hCdsgOS8DiOOOB2P+AZdHQ1yCMJbfE0VjlwrQcdX0K3JwPII0J4RmzSWS68HJyEmQm722aMQGsPbdcQj2NDwlf9NtIcm0v7ckg9kYj/GcqNEoyyOowp6OBLaHYZdMAEHEjo6r915Dfc7ioELqNS48K5B3NX7E3AvbZiOGr4bL+KGJDQs2QrzkxYHqxj4yr+VUkamMDOwzL00qYUTzKuwcIEFqETidYqx0po7nOLD3X2Qhim7FIL0UPDhJ5uWKR4P7m4S3nBfppYHq+ylqYclUqtTRP6zX1V0Zmy0FVjO2ZgiWIm4oNKr3esxuwZXtb6TlHcEtyKO7WvcBjCTfhF6e6GC8/Eev4e014c4rZNqVtEecxR2jd41JgaTRXxtFK505GCF0d2hPGB87DZ9X5DKUq7HvPRwDBbNsBnCvf5fJxHZ08xn2ihkGYj6VhXFh+InWYvBhj53hzCnQoVgv8Zx5HrYxW7UvqFmz1PkxW+PTJR3WBr1sF88R3HSlFjX2Ofqe1a1+yJ4vq39xtfn6kMHhHGmeWiTynHa4X1wtnZgcvo1M5SHd+IJTIg5lGHCuWxCi0DYs+O2CZM0L20hCO1VWi72ZEO7TxV8aXDayS9hUWmpwUqVihd+Kq1D42KOUpncQnATTiHzuwOlTBHLJERJX5Mt8ch0bbZ8MBtZyVjrEgiPxdp1dMdO4TzscHTCGfrSMN0sUTGFRvGUF+UvJqNqwJq0QdEsWezC9myl0IqbRM6sbukYIpYIhOKpOamYpkoZ/vsAFu0hyg8/un8v7tNHC33PerSgd2nHN4QS+Sd40KpJVFXG9Aw4BZth3Cctlid/wSQpyR8G6y2mzqThLHi6ZlRoHLIDQJ5rPQ9u8MLzsTOOGzxVn5gzWCx/T83vNWoYYQwXDxF8/PqCDYTvFIstSYF9Axsj7H/0y/f9sMUbM9UWs8ZovgrdkHcOwArPCipppNESl622Ig2Dj29iYeovgdXwfS4aqDbVl+jTQlxWvOQnvc/ymJSwt9/xENuV1hJqQMghLvxW4w+GjZWZ+pUZG8oF4/m7/+kYLJYHhNtaLupM9eK1+LX5K3ENEVWKdG6tq7X9yoUXbCrQICJyh7UeKbS+s9V4tTcdXm9MVIwvNhtst/FGSVB4rF8O3yHOvn/qhLFMJKptHrQRSEeqE3+S0XRT/a+VlszhKn4A3/gjQLfDlXxBXMFTaadQkRph7y/TT8un3Ck9dasgC8LJTNVx9dieTxEp9SL1gnkJIQwAAfz5PEFPyqBQhkvtVzLxSGe0hw/iVNzr8j/6yZYjj+wG7VpyEI0UMjm7EOzBXEyU/EiOtOICf/oXE6z6Usthcoa/Wm2El9bN4hfW7vTbHqTrvBBOYhmc3jhg2gMlySdoIu4quWfS+dEcyphtlgio7ipVYCeCpuvzWg2c0jDB2KJvMKwiDyuUwjfaUyzmYVKYN0U9qgAcIc4ADSrQEgKMYZkjBNL5F3rQ7NVunsxldZQkjBGoU+ezck9/xDb6zOH+0MSTwnhKXZajdtW8jTmTFSkk9n30vCN0cWpVZ+2L2rTo55oL5HFlr1Xq5RS+g/K07WCwq3ilZkVFhU5S8V/HSjGR4xGpUxmUyssUwEfiuUxmtuqwaObQqHlMwNvlZPwqUJB8BDdKYh0Eqfmbsa5gbZINcdbShCjaYst4pagFwXWGjXwnTg54D46UbCRtwvbiYxAWqI2lovl0ZcOFHwa4Qdx3uH1gbOCSmPU3nQeO1BpWXxzoCzQUqG1dg86jj3UxBLx68U9gbn78xW+xC6m09hFOr6ydP2mPbYJ73sbLqDD2MdJmKsgEdN3ALqKU2k34iw6i51UxCdiiTxv9B7y1eJU2rWWxBOQYknFNLFEXjU2NfcWcUTaStSjk9hNObwplshUI+NY78Q+cSot60wSJOFlsUQ+Mi4TQh7yv9C6DlukBEJ4Ruw+s3CiQff3hPj+FjCVltjhQkGXP+FLiMcvkO+x7Sax4zO2HN6yZAmCeEKwFkLtWsQmnhCcrTSVbdDnmEpLYhGMYAw7A2mIJ5gfzmdvKCbxBLMDwu0O5ieeYG5KEdPBiCeYmZTKhGLiGSplDe7y9YpbKXSLz+BEE1XMKowjL2r0CzpykkkimFNaTaUs3jmcYJIoZhTnZGFV4hsq5Z1f8HRPmqW5ia/o3SCAzR2I7+jbYobtgYgWqDQpm+F6S1A2mCPaoFubS7YoJdqh0ii5iktPtDEaPtGI9chfaha58M6fjHHi63iXqbTEC+4Qrxp9jzqOXkEKJovl8TrbbhKvuE6877AGjR07exo+EMtjPFNpiZf0FKfmrkMzR85cCbPF8hjFVFriNV3Eqbmb0Cbhs1bFF8wVJGbQDlvF0bMdEjpjOr4Wy2MQJ4r4RWtsEOdfdFc+Wy0sFQff9+ckET9pjp/EqbmXK52pgUKGYx9OEPEbbxxXRYhXcHKIDtTCMpdffVorpNJexokhulDd1Y9n7xcDCHEY95Zfu4hTaZ1YTibEYSphjlgiI2Nu4F2lsCF5BieD6EgapjscAnKtryEthDiMs0GEt/seFEmIw5TFJLFE3ik2DF0eVv8tU2mJ/iRhrAOJTEO0ScwixGFCGCZ27/kFUmFVUnvnoTINT8xhsNjFP897AjjzBCJEc9S+IfQtL0SIw9ym0BJUXsNxAlNpianISoJGkINcZGtc4pQQh+ked1HpCHIQRRS52K9xkWxCHKZzXLFUERxBNG/EKxGm0pJA0DZmNG5BeRwdBzRu1EOIw5TeGi27iDxiScTvVm+EOExjrClRHrnFyCOKKH7TuFkoIQ5TfHvm/SXKoySJ6NJumhCHKdo1N7tUeRQnke24hIYkQeUULCrk7rHkEUW00L7IFrSlEUmQqYLP8t39YBzyiOL3/P+/Hq1pQBJ0/qytmxOXQKJsu0nsIi0v4upInAKJIIyVqEfDEVsoj6kigSxBDRqN2ERZTMDhuORxBF8jnQYjtpGEKXEJ5EecTGMRGwnhy5jy2EV5EJufIgtjrF+xjA+x/FtkaSnyOJ0GIraTiuUlyKMRjUMIcAKyishjH5rQMIQce4pMLxSXtRq1aRRCCtICk7AMK/AhMphpTgghJP8rYxCmYYEDYw5GozkNSoJEBSwWl4MrbexCJxqVBIeHHJVHGGEsp1FJcHjXcYGEUY1mJUFhlgsCqUuzEgqEAiEUCAVCKBAKhBAKhBAKhBAKhBCvGO+4PHYV21mdEA8I4SI8gMccHJNxyOGR5ej1FRz3ogVdgJRMZWS68EJ0MM4KWPGNHERcuMY/xxgk0RFI8bzpktNFcMChke2qOI6OgXQEUhzVsc8D99N/rKArkOI4l+LIGyl0BlKUdpRG3uAqGaFAKBDikEAqR+pmxztOiVAgxCKBNMqemxOJSsbq3G4HKBBihUAqRLKOyOQRiUaie6Kt91MgxAKBXPubXB6RaCT6wmEKhFggkIcPqQkkM4cCIRYI5BFFgcymQAgFQoEQCoQCIYQCoUAIBUKBEAqEAiGeCWTIQTWBzKRAiA0CueKAmkBGHKJAiAUCSQ5/rhBqsj1aL5sCIRYIBOFqkQm/b86NXxw7opk5Lc2OxKJASPwCORbwHu8oy3wQYp9AmDBFyFmUBsIIYw+S6QykKGnYTnkgjHl0BVI8D1Ie2IuL6AikeEK4H1utlsdqZNANSGmUR1O0tHQ0QBk6ACGEEEIIIYQQQgghhBBCCCGEEEIIIYQQQgghRAf+D+cRaUR2vWp8AAAAAElFTkSuQmCC;" vertex="1" parent="1">
          <mxGeometry x="655" y="220" width="85" height="59.71" as="geometry" />
        </mxCell>
        <mxCell id="kPs2F_dNv8uR9kxLxlrE-22" value="" style="shape=image;verticalLabelPosition=bottom;labelBackgroundColor=default;verticalAlign=top;aspect=fixed;imageAspect=0;image=data:image/png,iVBORw0KGgoAAAANSUhEUgAAAZAAAAEZCAQAAAATCbtXAAAAAnNCSVQICFXsRgQAAAAJcEhZcwAAKjsAACo7AeZ9qxYAAAAZdEVYdFNvZnR3YXJlAHd3dy5pbmtzY2FwZS5vcmeb7jwaAAARo0lEQVR42u2deZzO1R7HP48ZxowiN4xulpBdtkoLigqh0aK0SHXbRAu96r7CTbduCxVKVJeKVORWN6kwEa52kmWyJMou2Z9nCI15un8Y04xZnud7nt9yzu983uc/L/Nbvuf7eX6/3znfBSCEEEIIIYQQQgghhBBCCCGEEEIIIYQQQgghhBBCCCGEEEIIIYQQQgghhBBCCCGEEEIIIYQQQgghhBBCCCGEEEIIIYQQQog9JKMrnsIrGIauSKI5iKGchaEYh1G4ERWdPGxzLEQ4fyzCGbQ0MY6T8U4BL/4ZPZ068LnYWuDAYYTxCzrS3sQoamLpcV68D/2cOHAzbDzuwGGEsRM9aHNiDPWxqhgv3odbEj/w2mIOHEYYe9CbdidG0Ag/lODFe3FNIgeuU+KBj+qvL21PtKcl1pfixXtwueqBT8CiUg58VCL30f5Ea9piSwwv/hUt1Q79ZIwDHx2PcQ6ItnTC9jh8eAFC8kMnY1NcAgnjCZXDE+I6PbAzTh9urvJhE457PI8ynA2iGddjT9wefIv88K0EAgnjFSRzRohG3I69Av+9R36CqtgnkshkpHBWiCYMFPluGBkqJ5krPMk0pHJmiAY8LPTc7WqRWRcLnyFhZDobAkaImBCGC702jKGqJxskPtUC/IVzRHwjCWPEPjsNZb17lwtjEf7KeSK+kIx/i/31vUQ/DO4Qv2hloQ7ninhOCt4Sy2OKE0tL12G38LRr0JjzRTwlDR+I5eHY5kRP7BKeei2acc6IZ1TCbLE8nnNye/tS/Co8/Sa04bwRT6iMeWJ5OB5D2K5IXmGs8Qsu5NwR10nH1/7LAwBaY4PwMnagO+ePuErRVNpwzCSN/m5dTAv8JLyYnerpKITEpAFWCz1yD/pYdUHEYpqLf7B34Uq3L6oWlokfaf04l8SFV/714lf+y7y4sOr4RvxR9BDnk/i+aNTBq4urii/0WDcgltIlrlTawtsO53h5gZUwRyyRkcw7JI5wpXjjep331UDTMF0skfHMOyQJc61C6FMTPy40BZPFEpmYSGgxIcJU2jDC+N6/4NlymCSWyDvMOyTKyNMvvvU3/SIJY8WXPAMncKaJAoPFvvY5qvh90SEME1/2fOYdEk/8rDKVTWzA+DcV494NiUEE4lv3NoXVhbqcexKTFEwJxmqpfH36R3/Wp4lBqOy3jdN1v82IHU5iECoRGyN0jtjorHuMDDGIqvgyeDF/KlGWbAlKihLYqPFWusbpE4MIdN5RY6wR3txuXEefIPk0VMhcvdGkG6yvcIM30S8IAEtqH6hUm7ibvkFwprh6znZcYuKNpuMr5h0SDxZ5jK2/pkXFO2IQ8gqeG3G2yTdcEZ/4WzOVGISVNaBT/ay6TQziZnE030qcHoQbV+nb8HbgW4Im4VSch54YgGcxGR9jPhZjLbZhT4GxGVlYgOl4Hc9hCHqjLU4N7NNVpQ/NacFxBh86/2hph4boiYcxFctxGH8ojcNYh4/xJHqhIZICYxnrO5kl4QWxCWbixIDc/Unoin/hU2QriqKkcQDfYBSuMDz5LITHFXphnhy0X88QnhSb4X+Gp+amoBNGYQVyHRbG8SOKFXgJVxv5gxLC02K/yAzMT2fCD9KFOMXIO62JfvgI+10WxvHjEDLRH7WMerN4SewTH6NCcD9NB4o/xRbjVKPusAr64zNEPZZG4bEEfzfiDb0c3hTLYyrKB3v15lbxYt4K1DPizlJxI2Yix1dp/DmOYBZu0HqhIxXvi+Xxmg2FB69RSM1tqvk91cOz2K2JNAqOMF7WtONwBXwklsdoW7aQuyoEFJyl6b2UQQZmuf4ZntgnfCa6IqTZut6nYnk8q9k9uEoncWruZpyr3V0kow9WayyNgmMN+qKcJnarxjDW2JyPLeKg5os0uv6yuAlrDBHHsbEJAzSIUKiBJeJEiHthIS3xszgtJkOTJ8ed2GSYOI6N9bjd1w/d2lgulkdfWEoj/CDOO7zB96vujpWGiuPY+BE9OONmUBtZRv2eNMUMw8VxbMz1oSKZue8MfCONa+VlvNarVdKRg9GeVj83/auTaxqlkoHNARLHsbEdV3tkvwuwLQDrlr6tis/VelW8Jj70YOd7DzZgJRYXGOuw24Nn1lRUdd2CQdr58gWd91VvQ8QFt8zGIkzEUNyMTmhSaieLSqiL9uiDoXgN81zZr9+BXq5aMIixE56jZ2ROZbzrqCvuQyYeQTeclsDzrwa6YTDexw5Hr2yyayHkfwts9J3H6BfbeaFjux0RvI+70MzRZ14ITdAXkx0Tyhq0cMGGwY/f9hCdsgOS8DiOOOB2P+AZdHQ1yCMJbfE0VjlwrQcdX0K3JwPII0J4RmzSWS68HJyEmQm722aMQGsPbdcQj2NDwlf9NtIcm0v7ckg9kYj/GcqNEoyyOowp6OBLaHYZdMAEHEjo6r915Dfc7ioELqNS48K5B3NX7E3AvbZiOGr4bL+KGJDQs2QrzkxYHqxj4yr+VUkamMDOwzL00qYUTzKuwcIEFqETidYqx0po7nOLD3X2Qhim7FIL0UPDhJ5uWKR4P7m4S3nBfppYHq+ylqYclUqtTRP6zX1V0Zmy0FVjO2ZgiWIm4oNKr3esxuwZXtb6TlHcEtyKO7WvcBjCTfhF6e6GC8/Eev4e014c4rZNqVtEecxR2jd41JgaTRXxtFK505GCF0d2hPGB87DZ9X5DKUq7HvPRwDBbNsBnCvf5fJxHZ08xn2ihkGYj6VhXFh+InWYvBhj53hzCnQoVgv8Zx5HrYxW7UvqFmz1PkxW+PTJR3WBr1sF88R3HSlFjX2Ofqe1a1+yJ4vq39xtfn6kMHhHGmeWiTynHa4X1wtnZgcvo1M5SHd+IJTIg5lGHCuWxCi0DYs+O2CZM0L20hCO1VWi72ZEO7TxV8aXDayS9hUWmpwUqVihd+Kq1D42KOUpncQnATTiHzuwOlTBHLJERJX5Mt8ch0bbZ8MBtZyVjrEgiPxdp1dMdO4TzscHTCGfrSMN0sUTGFRvGUF+UvJqNqwJq0QdEsWezC9myl0IqbRM6sbukYIpYIhOKpOamYpkoZ/vsAFu0hyg8/un8v7tNHC33PerSgd2nHN4QS+Sd40KpJVFXG9Aw4BZth3Cctlid/wSQpyR8G6y2mzqThLHi6ZlRoHLIDQJ5rPQ9u8MLzsTOOGzxVn5gzWCx/T83vNWoYYQwXDxF8/PqCDYTvFIstSYF9Axsj7H/0y/f9sMUbM9UWs8ZovgrdkHcOwArPCipppNESl622Ig2Dj29iYeovgdXwfS4aqDbVl+jTQlxWvOQnvc/ymJSwt9/xENuV1hJqQMghLvxW4w+GjZWZ+pUZG8oF4/m7/+kYLJYHhNtaLupM9eK1+LX5K3ENEVWKdG6tq7X9yoUXbCrQICJyh7UeKbS+s9V4tTcdXm9MVIwvNhtst/FGSVB4rF8O3yHOvn/qhLFMJKptHrQRSEeqE3+S0XRT/a+VlszhKn4A3/gjQLfDlXxBXMFTaadQkRph7y/TT8un3Ck9dasgC8LJTNVx9dieTxEp9SL1gnkJIQwAAfz5PEFPyqBQhkvtVzLxSGe0hw/iVNzr8j/6yZYjj+wG7VpyEI0UMjm7EOzBXEyU/EiOtOICf/oXE6z6Usthcoa/Wm2El9bN4hfW7vTbHqTrvBBOYhmc3jhg2gMlySdoIu4quWfS+dEcyphtlgio7ipVYCeCpuvzWg2c0jDB2KJvMKwiDyuUwjfaUyzmYVKYN0U9qgAcIc4ADSrQEgKMYZkjBNL5F3rQ7NVunsxldZQkjBGoU+ezck9/xDb6zOH+0MSTwnhKXZajdtW8jTmTFSkk9n30vCN0cWpVZ+2L2rTo55oL5HFlr1Xq5RS+g/K07WCwq3ilZkVFhU5S8V/HSjGR4xGpUxmUyssUwEfiuUxmtuqwaObQqHlMwNvlZPwqUJB8BDdKYh0Eqfmbsa5gbZINcdbShCjaYst4pagFwXWGjXwnTg54D46UbCRtwvbiYxAWqI2lovl0ZcOFHwa4Qdx3uH1gbOCSmPU3nQeO1BpWXxzoCzQUqG1dg86jj3UxBLx68U9gbn78xW+xC6m09hFOr6ydP2mPbYJ73sbLqDD2MdJmKsgEdN3ALqKU2k34iw6i51UxCdiiTxv9B7y1eJU2rWWxBOQYknFNLFEXjU2NfcWcUTaStSjk9hNObwplshUI+NY78Q+cSot60wSJOFlsUQ+Mi4TQh7yv9C6DlukBEJ4Ruw+s3CiQff3hPj+FjCVltjhQkGXP+FLiMcvkO+x7Sax4zO2HN6yZAmCeEKwFkLtWsQmnhCcrTSVbdDnmEpLYhGMYAw7A2mIJ5gfzmdvKCbxBLMDwu0O5ieeYG5KEdPBiCeYmZTKhGLiGSplDe7y9YpbKXSLz+BEE1XMKowjL2r0CzpykkkimFNaTaUs3jmcYJIoZhTnZGFV4hsq5Z1f8HRPmqW5ia/o3SCAzR2I7+jbYobtgYgWqDQpm+F6S1A2mCPaoFubS7YoJdqh0ii5iktPtDEaPtGI9chfaha58M6fjHHi63iXqbTEC+4Qrxp9jzqOXkEKJovl8TrbbhKvuE6877AGjR07exo+EMtjPFNpiZf0FKfmrkMzR85cCbPF8hjFVFriNV3Eqbmb0Cbhs1bFF8wVJGbQDlvF0bMdEjpjOr4Wy2MQJ4r4RWtsEOdfdFc+Wy0sFQff9+ckET9pjp/EqbmXK52pgUKGYx9OEPEbbxxXRYhXcHKIDtTCMpdffVorpNJexokhulDd1Y9n7xcDCHEY95Zfu4hTaZ1YTibEYSphjlgiI2Nu4F2lsCF5BieD6EgapjscAnKtryEthDiMs0GEt/seFEmIw5TFJLFE3ik2DF0eVv8tU2mJ/iRhrAOJTEO0ScwixGFCGCZ27/kFUmFVUnvnoTINT8xhsNjFP897AjjzBCJEc9S+IfQtL0SIw9ym0BJUXsNxAlNpianISoJGkINcZGtc4pQQh+ked1HpCHIQRRS52K9xkWxCHKZzXLFUERxBNG/EKxGm0pJA0DZmNG5BeRwdBzRu1EOIw5TeGi27iDxiScTvVm+EOExjrClRHrnFyCOKKH7TuFkoIQ5TfHvm/SXKoySJ6NJumhCHKdo1N7tUeRQnke24hIYkQeUULCrk7rHkEUW00L7IFrSlEUmQqYLP8t39YBzyiOL3/P+/Hq1pQBJ0/qytmxOXQKJsu0nsIi0v4upInAKJIIyVqEfDEVsoj6kigSxBDRqN2ERZTMDhuORxBF8jnQYjtpGEKXEJ5EecTGMRGwnhy5jy2EV5EJufIgtjrF+xjA+x/FtkaSnyOJ0GIraTiuUlyKMRjUMIcAKyishjH5rQMIQce4pMLxSXtRq1aRRCCtICk7AMK/AhMphpTgghJP8rYxCmYYEDYw5GozkNSoJEBSwWl4MrbexCJxqVBIeHHJVHGGEsp1FJcHjXcYGEUY1mJUFhlgsCqUuzEgqEAiEUCAVCKBAKhBAKhBAKhBAKhBCvGO+4PHYV21mdEA8I4SI8gMccHJNxyOGR5ej1FRz3ogVdgJRMZWS68EJ0MM4KWPGNHERcuMY/xxgk0RFI8bzpktNFcMChke2qOI6OgXQEUhzVsc8D99N/rKArkOI4l+LIGyl0BlKUdpRG3uAqGaFAKBDikEAqR+pmxztOiVAgxCKBNMqemxOJSsbq3G4HKBBihUAqRLKOyOQRiUaie6Kt91MgxAKBXPubXB6RaCT6wmEKhFggkIcPqQkkM4cCIRYI5BFFgcymQAgFQoEQCoQCIYQCoUAIBUKBEAqEAiGeCWTIQTWBzKRAiA0CueKAmkBGHKJAiAUCSQ5/rhBqsj1aL5sCIRYIBOFqkQm/b86NXxw7opk5Lc2OxKJASPwCORbwHu8oy3wQYp9AmDBFyFmUBsIIYw+S6QykKGnYTnkgjHl0BVI8D1Ie2IuL6AikeEK4H1utlsdqZNANSGmUR1O0tHQ0QBk6ACGEEEIIIYQQQgghhBBCCCGEEEIIIYQQQgghRAf+D+cRaUR2vWp8AAAAAElFTkSuQmCC;rotation=-180;" vertex="1" parent="1">
          <mxGeometry x="79.91" y="301" width="85" height="59.71" as="geometry" />
        </mxCell>
        <mxCell id="kPs2F_dNv8uR9kxLxlrE-23" value="" style="shape=image;verticalLabelPosition=bottom;labelBackgroundColor=default;verticalAlign=top;aspect=fixed;imageAspect=0;image=data:image/png,iVBORw0KGgoAAAANSUhEUgAAAZAAAAEZCAQAAAATCbtXAAAAAnNCSVQICFXsRgQAAAAJcEhZcwAAKjsAACo7AeZ9qxYAAAAZdEVYdFNvZnR3YXJlAHd3dy5pbmtzY2FwZS5vcmeb7jwaAAARo0lEQVR42u2deZzO1R7HP48ZxowiN4xulpBdtkoLigqh0aK0SHXbRAu96r7CTbduCxVKVJeKVORWN6kwEa52kmWyJMou2Z9nCI15un8Y04xZnud7nt9yzu983uc/L/Nbvuf7eX6/3znfBSCEEEIIIYQQQgghhBBCCCGEEEIIIYQQQgghhBBCCCGEEEIIIYQQQgghhBBCCCGEEEIIIYQQQgghhBBCCCGEEEIIIYQQQog9JKMrnsIrGIauSKI5iKGchaEYh1G4ERWdPGxzLEQ4fyzCGbQ0MY6T8U4BL/4ZPZ068LnYWuDAYYTxCzrS3sQoamLpcV68D/2cOHAzbDzuwGGEsRM9aHNiDPWxqhgv3odbEj/w2mIOHEYYe9CbdidG0Ag/lODFe3FNIgeuU+KBj+qvL21PtKcl1pfixXtwueqBT8CiUg58VCL30f5Ea9piSwwv/hUt1Q79ZIwDHx2PcQ6ItnTC9jh8eAFC8kMnY1NcAgnjCZXDE+I6PbAzTh9urvJhE457PI8ynA2iGddjT9wefIv88K0EAgnjFSRzRohG3I69Av+9R36CqtgnkshkpHBWiCYMFPluGBkqJ5krPMk0pHJmiAY8LPTc7WqRWRcLnyFhZDobAkaImBCGC702jKGqJxskPtUC/IVzRHwjCWPEPjsNZb17lwtjEf7KeSK+kIx/i/31vUQ/DO4Qv2hloQ7ninhOCt4Sy2OKE0tL12G38LRr0JjzRTwlDR+I5eHY5kRP7BKeei2acc6IZ1TCbLE8nnNye/tS/Co8/Sa04bwRT6iMeWJ5OB5D2K5IXmGs8Qsu5NwR10nH1/7LAwBaY4PwMnagO+ePuErRVNpwzCSN/m5dTAv8JLyYnerpKITEpAFWCz1yD/pYdUHEYpqLf7B34Uq3L6oWlokfaf04l8SFV/714lf+y7y4sOr4RvxR9BDnk/i+aNTBq4urii/0WDcgltIlrlTawtsO53h5gZUwRyyRkcw7JI5wpXjjep331UDTMF0skfHMOyQJc61C6FMTPy40BZPFEpmYSGgxIcJU2jDC+N6/4NlymCSWyDvMOyTKyNMvvvU3/SIJY8WXPAMncKaJAoPFvvY5qvh90SEME1/2fOYdEk/8rDKVTWzA+DcV494NiUEE4lv3NoXVhbqcexKTFEwJxmqpfH36R3/Wp4lBqOy3jdN1v82IHU5iECoRGyN0jtjorHuMDDGIqvgyeDF/KlGWbAlKihLYqPFWusbpE4MIdN5RY6wR3txuXEefIPk0VMhcvdGkG6yvcIM30S8IAEtqH6hUm7ibvkFwprh6znZcYuKNpuMr5h0SDxZ5jK2/pkXFO2IQ8gqeG3G2yTdcEZ/4WzOVGISVNaBT/ay6TQziZnE030qcHoQbV+nb8HbgW4Im4VSch54YgGcxGR9jPhZjLbZhT4GxGVlYgOl4Hc9hCHqjLU4N7NNVpQ/NacFxBh86/2hph4boiYcxFctxGH8ojcNYh4/xJHqhIZICYxnrO5kl4QWxCWbixIDc/Unoin/hU2QriqKkcQDfYBSuMDz5LITHFXphnhy0X88QnhSb4X+Gp+amoBNGYQVyHRbG8SOKFXgJVxv5gxLC02K/yAzMT2fCD9KFOMXIO62JfvgI+10WxvHjEDLRH7WMerN4SewTH6NCcD9NB4o/xRbjVKPusAr64zNEPZZG4bEEfzfiDb0c3hTLYyrKB3v15lbxYt4K1DPizlJxI2Yix1dp/DmOYBZu0HqhIxXvi+Xxmg2FB69RSM1tqvk91cOz2K2JNAqOMF7WtONwBXwklsdoW7aQuyoEFJyl6b2UQQZmuf4ZntgnfCa6IqTZut6nYnk8q9k9uEoncWruZpyr3V0kow9WayyNgmMN+qKcJnarxjDW2JyPLeKg5os0uv6yuAlrDBHHsbEJAzSIUKiBJeJEiHthIS3xszgtJkOTJ8ed2GSYOI6N9bjd1w/d2lgulkdfWEoj/CDOO7zB96vujpWGiuPY+BE9OONmUBtZRv2eNMUMw8VxbMz1oSKZue8MfCONa+VlvNarVdKRg9GeVj83/auTaxqlkoHNARLHsbEdV3tkvwuwLQDrlr6tis/VelW8Jj70YOd7DzZgJRYXGOuw24Nn1lRUdd2CQdr58gWd91VvQ8QFt8zGIkzEUNyMTmhSaieLSqiL9uiDoXgN81zZr9+BXq5aMIixE56jZ2ROZbzrqCvuQyYeQTeclsDzrwa6YTDexw5Hr2yyayHkfwts9J3H6BfbeaFjux0RvI+70MzRZ14ITdAXkx0Tyhq0cMGGwY/f9hCdsgOS8DiOOOB2P+AZdHQ1yCMJbfE0VjlwrQcdX0K3JwPII0J4RmzSWS68HJyEmQm722aMQGsPbdcQj2NDwlf9NtIcm0v7ckg9kYj/GcqNEoyyOowp6OBLaHYZdMAEHEjo6r915Dfc7ioELqNS48K5B3NX7E3AvbZiOGr4bL+KGJDQs2QrzkxYHqxj4yr+VUkamMDOwzL00qYUTzKuwcIEFqETidYqx0po7nOLD3X2Qhim7FIL0UPDhJ5uWKR4P7m4S3nBfppYHq+ylqYclUqtTRP6zX1V0Zmy0FVjO2ZgiWIm4oNKr3esxuwZXtb6TlHcEtyKO7WvcBjCTfhF6e6GC8/Eev4e014c4rZNqVtEecxR2jd41JgaTRXxtFK505GCF0d2hPGB87DZ9X5DKUq7HvPRwDBbNsBnCvf5fJxHZ08xn2ihkGYj6VhXFh+InWYvBhj53hzCnQoVgv8Zx5HrYxW7UvqFmz1PkxW+PTJR3WBr1sF88R3HSlFjX2Ofqe1a1+yJ4vq39xtfn6kMHhHGmeWiTynHa4X1wtnZgcvo1M5SHd+IJTIg5lGHCuWxCi0DYs+O2CZM0L20hCO1VWi72ZEO7TxV8aXDayS9hUWmpwUqVihd+Kq1D42KOUpncQnATTiHzuwOlTBHLJERJX5Mt8ch0bbZ8MBtZyVjrEgiPxdp1dMdO4TzscHTCGfrSMN0sUTGFRvGUF+UvJqNqwJq0QdEsWezC9myl0IqbRM6sbukYIpYIhOKpOamYpkoZ/vsAFu0hyg8/un8v7tNHC33PerSgd2nHN4QS+Sd40KpJVFXG9Aw4BZth3Cctlid/wSQpyR8G6y2mzqThLHi6ZlRoHLIDQJ5rPQ9u8MLzsTOOGzxVn5gzWCx/T83vNWoYYQwXDxF8/PqCDYTvFIstSYF9Axsj7H/0y/f9sMUbM9UWs8ZovgrdkHcOwArPCipppNESl622Ig2Dj29iYeovgdXwfS4aqDbVl+jTQlxWvOQnvc/ymJSwt9/xENuV1hJqQMghLvxW4w+GjZWZ+pUZG8oF4/m7/+kYLJYHhNtaLupM9eK1+LX5K3ENEVWKdG6tq7X9yoUXbCrQICJyh7UeKbS+s9V4tTcdXm9MVIwvNhtst/FGSVB4rF8O3yHOvn/qhLFMJKptHrQRSEeqE3+S0XRT/a+VlszhKn4A3/gjQLfDlXxBXMFTaadQkRph7y/TT8un3Ck9dasgC8LJTNVx9dieTxEp9SL1gnkJIQwAAfz5PEFPyqBQhkvtVzLxSGe0hw/iVNzr8j/6yZYjj+wG7VpyEI0UMjm7EOzBXEyU/EiOtOICf/oXE6z6Usthcoa/Wm2El9bN4hfW7vTbHqTrvBBOYhmc3jhg2gMlySdoIu4quWfS+dEcyphtlgio7ipVYCeCpuvzWg2c0jDB2KJvMKwiDyuUwjfaUyzmYVKYN0U9qgAcIc4ADSrQEgKMYZkjBNL5F3rQ7NVunsxldZQkjBGoU+ezck9/xDb6zOH+0MSTwnhKXZajdtW8jTmTFSkk9n30vCN0cWpVZ+2L2rTo55oL5HFlr1Xq5RS+g/K07WCwq3ilZkVFhU5S8V/HSjGR4xGpUxmUyssUwEfiuUxmtuqwaObQqHlMwNvlZPwqUJB8BDdKYh0Eqfmbsa5gbZINcdbShCjaYst4pagFwXWGjXwnTg54D46UbCRtwvbiYxAWqI2lovl0ZcOFHwa4Qdx3uH1gbOCSmPU3nQeO1BpWXxzoCzQUqG1dg86jj3UxBLx68U9gbn78xW+xC6m09hFOr6ydP2mPbYJ73sbLqDD2MdJmKsgEdN3ALqKU2k34iw6i51UxCdiiTxv9B7y1eJU2rWWxBOQYknFNLFEXjU2NfcWcUTaStSjk9hNObwplshUI+NY78Q+cSot60wSJOFlsUQ+Mi4TQh7yv9C6DlukBEJ4Ruw+s3CiQff3hPj+FjCVltjhQkGXP+FLiMcvkO+x7Sax4zO2HN6yZAmCeEKwFkLtWsQmnhCcrTSVbdDnmEpLYhGMYAw7A2mIJ5gfzmdvKCbxBLMDwu0O5ieeYG5KEdPBiCeYmZTKhGLiGSplDe7y9YpbKXSLz+BEE1XMKowjL2r0CzpykkkimFNaTaUs3jmcYJIoZhTnZGFV4hsq5Z1f8HRPmqW5ia/o3SCAzR2I7+jbYobtgYgWqDQpm+F6S1A2mCPaoFubS7YoJdqh0ii5iktPtDEaPtGI9chfaha58M6fjHHi63iXqbTEC+4Qrxp9jzqOXkEKJovl8TrbbhKvuE6877AGjR07exo+EMtjPFNpiZf0FKfmrkMzR85cCbPF8hjFVFriNV3Eqbmb0Cbhs1bFF8wVJGbQDlvF0bMdEjpjOr4Wy2MQJ4r4RWtsEOdfdFc+Wy0sFQff9+ckET9pjp/EqbmXK52pgUKGYx9OEPEbbxxXRYhXcHKIDtTCMpdffVorpNJexokhulDd1Y9n7xcDCHEY95Zfu4hTaZ1YTibEYSphjlgiI2Nu4F2lsCF5BieD6EgapjscAnKtryEthDiMs0GEt/seFEmIw5TFJLFE3ik2DF0eVv8tU2mJ/iRhrAOJTEO0ScwixGFCGCZ27/kFUmFVUnvnoTINT8xhsNjFP897AjjzBCJEc9S+IfQtL0SIw9ym0BJUXsNxAlNpianISoJGkINcZGtc4pQQh+ked1HpCHIQRRS52K9xkWxCHKZzXLFUERxBNG/EKxGm0pJA0DZmNG5BeRwdBzRu1EOIw5TeGi27iDxiScTvVm+EOExjrClRHrnFyCOKKH7TuFkoIQ5TfHvm/SXKoySJ6NJumhCHKdo1N7tUeRQnke24hIYkQeUULCrk7rHkEUW00L7IFrSlEUmQqYLP8t39YBzyiOL3/P+/Hq1pQBJ0/qytmxOXQKJsu0nsIi0v4upInAKJIIyVqEfDEVsoj6kigSxBDRqN2ERZTMDhuORxBF8jnQYjtpGEKXEJ5EecTGMRGwnhy5jy2EV5EJufIgtjrF+xjA+x/FtkaSnyOJ0GIraTiuUlyKMRjUMIcAKyishjH5rQMIQce4pMLxSXtRq1aRRCCtICk7AMK/AhMphpTgghJP8rYxCmYYEDYw5GozkNSoJEBSwWl4MrbexCJxqVBIeHHJVHGGEsp1FJcHjXcYGEUY1mJUFhlgsCqUuzEgqEAiEUCAVCKBAKhBAKhBAKhBAKhBCvGO+4PHYV21mdEA8I4SI8gMccHJNxyOGR5ej1FRz3ogVdgJRMZWS68EJ0MM4KWPGNHERcuMY/xxgk0RFI8bzpktNFcMChke2qOI6OgXQEUhzVsc8D99N/rKArkOI4l+LIGyl0BlKUdpRG3uAqGaFAKBDikEAqR+pmxztOiVAgxCKBNMqemxOJSsbq3G4HKBBihUAqRLKOyOQRiUaie6Kt91MgxAKBXPubXB6RaCT6wmEKhFggkIcPqQkkM4cCIRYI5BFFgcymQAgFQoEQCoQCIYQCoUAIBUKBEAqEAiGeCWTIQTWBzKRAiA0CueKAmkBGHKJAiAUCSQ5/rhBqsj1aL5sCIRYIBOFqkQm/b86NXxw7opk5Lc2OxKJASPwCORbwHu8oy3wQYp9AmDBFyFmUBsIIYw+S6QykKGnYTnkgjHl0BVI8D1Ie2IuL6AikeEK4H1utlsdqZNANSGmUR1O0tHQ0QBk6ACGEEEIIIYQQQgghhBBCCCGEEEIIIYQQQgghRAf+D+cRaUR2vWp8AAAAAElFTkSuQmCC;rotation=-180;" vertex="1" parent="1">
          <mxGeometry x="194" y="300.99999999999994" width="85" height="59.71" as="geometry" />
        </mxCell>
        <mxCell id="kPs2F_dNv8uR9kxLxlrE-26" value="" style="shape=image;verticalLabelPosition=bottom;labelBackgroundColor=default;verticalAlign=top;aspect=fixed;imageAspect=0;image=data:image/png,iVBORw0KGgoAAAANSUhEUgAAAZAAAAEZCAQAAAATCbtXAAAAAnNCSVQICFXsRgQAAAAJcEhZcwAAKjsAACo7AeZ9qxYAAAAZdEVYdFNvZnR3YXJlAHd3dy5pbmtzY2FwZS5vcmeb7jwaAAARo0lEQVR42u2deZzO1R7HP48ZxowiN4xulpBdtkoLigqh0aK0SHXbRAu96r7CTbduCxVKVJeKVORWN6kwEa52kmWyJMou2Z9nCI15un8Y04xZnud7nt9yzu983uc/L/Nbvuf7eX6/3znfBSCEEEIIIYQQQgghhBBCCCGEEEIIIYQQQgghhBBCCCGEEEIIIYQQQgghhBBCCCGEEEIIIYQQQgghhBBCCCGEEEIIIYQQQog9JKMrnsIrGIauSKI5iKGchaEYh1G4ERWdPGxzLEQ4fyzCGbQ0MY6T8U4BL/4ZPZ068LnYWuDAYYTxCzrS3sQoamLpcV68D/2cOHAzbDzuwGGEsRM9aHNiDPWxqhgv3odbEj/w2mIOHEYYe9CbdidG0Ag/lODFe3FNIgeuU+KBj+qvL21PtKcl1pfixXtwueqBT8CiUg58VCL30f5Ea9piSwwv/hUt1Q79ZIwDHx2PcQ6ItnTC9jh8eAFC8kMnY1NcAgnjCZXDE+I6PbAzTh9urvJhE457PI8ynA2iGddjT9wefIv88K0EAgnjFSRzRohG3I69Av+9R36CqtgnkshkpHBWiCYMFPluGBkqJ5krPMk0pHJmiAY8LPTc7WqRWRcLnyFhZDobAkaImBCGC702jKGqJxskPtUC/IVzRHwjCWPEPjsNZb17lwtjEf7KeSK+kIx/i/31vUQ/DO4Qv2hloQ7ninhOCt4Sy2OKE0tL12G38LRr0JjzRTwlDR+I5eHY5kRP7BKeei2acc6IZ1TCbLE8nnNye/tS/Co8/Sa04bwRT6iMeWJ5OB5D2K5IXmGs8Qsu5NwR10nH1/7LAwBaY4PwMnagO+ePuErRVNpwzCSN/m5dTAv8JLyYnerpKITEpAFWCz1yD/pYdUHEYpqLf7B34Uq3L6oWlokfaf04l8SFV/714lf+y7y4sOr4RvxR9BDnk/i+aNTBq4urii/0WDcgltIlrlTawtsO53h5gZUwRyyRkcw7JI5wpXjjep331UDTMF0skfHMOyQJc61C6FMTPy40BZPFEpmYSGgxIcJU2jDC+N6/4NlymCSWyDvMOyTKyNMvvvU3/SIJY8WXPAMncKaJAoPFvvY5qvh90SEME1/2fOYdEk/8rDKVTWzA+DcV494NiUEE4lv3NoXVhbqcexKTFEwJxmqpfH36R3/Wp4lBqOy3jdN1v82IHU5iECoRGyN0jtjorHuMDDGIqvgyeDF/KlGWbAlKihLYqPFWusbpE4MIdN5RY6wR3txuXEefIPk0VMhcvdGkG6yvcIM30S8IAEtqH6hUm7ibvkFwprh6znZcYuKNpuMr5h0SDxZ5jK2/pkXFO2IQ8gqeG3G2yTdcEZ/4WzOVGISVNaBT/ay6TQziZnE030qcHoQbV+nb8HbgW4Im4VSch54YgGcxGR9jPhZjLbZhT4GxGVlYgOl4Hc9hCHqjLU4N7NNVpQ/NacFxBh86/2hph4boiYcxFctxGH8ojcNYh4/xJHqhIZICYxnrO5kl4QWxCWbixIDc/Unoin/hU2QriqKkcQDfYBSuMDz5LITHFXphnhy0X88QnhSb4X+Gp+amoBNGYQVyHRbG8SOKFXgJVxv5gxLC02K/yAzMT2fCD9KFOMXIO62JfvgI+10WxvHjEDLRH7WMerN4SewTH6NCcD9NB4o/xRbjVKPusAr64zNEPZZG4bEEfzfiDb0c3hTLYyrKB3v15lbxYt4K1DPizlJxI2Yix1dp/DmOYBZu0HqhIxXvi+Xxmg2FB69RSM1tqvk91cOz2K2JNAqOMF7WtONwBXwklsdoW7aQuyoEFJyl6b2UQQZmuf4ZntgnfCa6IqTZut6nYnk8q9k9uEoncWruZpyr3V0kow9WayyNgmMN+qKcJnarxjDW2JyPLeKg5os0uv6yuAlrDBHHsbEJAzSIUKiBJeJEiHthIS3xszgtJkOTJ8ed2GSYOI6N9bjd1w/d2lgulkdfWEoj/CDOO7zB96vujpWGiuPY+BE9OONmUBtZRv2eNMUMw8VxbMz1oSKZue8MfCONa+VlvNarVdKRg9GeVj83/auTaxqlkoHNARLHsbEdV3tkvwuwLQDrlr6tis/VelW8Jj70YOd7DzZgJRYXGOuw24Nn1lRUdd2CQdr58gWd91VvQ8QFt8zGIkzEUNyMTmhSaieLSqiL9uiDoXgN81zZr9+BXq5aMIixE56jZ2ROZbzrqCvuQyYeQTeclsDzrwa6YTDexw5Hr2yyayHkfwts9J3H6BfbeaFjux0RvI+70MzRZ14ITdAXkx0Tyhq0cMGGwY/f9hCdsgOS8DiOOOB2P+AZdHQ1yCMJbfE0VjlwrQcdX0K3JwPII0J4RmzSWS68HJyEmQm722aMQGsPbdcQj2NDwlf9NtIcm0v7ckg9kYj/GcqNEoyyOowp6OBLaHYZdMAEHEjo6r915Dfc7ioELqNS48K5B3NX7E3AvbZiOGr4bL+KGJDQs2QrzkxYHqxj4yr+VUkamMDOwzL00qYUTzKuwcIEFqETidYqx0po7nOLD3X2Qhim7FIL0UPDhJ5uWKR4P7m4S3nBfppYHq+ylqYclUqtTRP6zX1V0Zmy0FVjO2ZgiWIm4oNKr3esxuwZXtb6TlHcEtyKO7WvcBjCTfhF6e6GC8/Eev4e014c4rZNqVtEecxR2jd41JgaTRXxtFK505GCF0d2hPGB87DZ9X5DKUq7HvPRwDBbNsBnCvf5fJxHZ08xn2ihkGYj6VhXFh+InWYvBhj53hzCnQoVgv8Zx5HrYxW7UvqFmz1PkxW+PTJR3WBr1sF88R3HSlFjX2Ofqe1a1+yJ4vq39xtfn6kMHhHGmeWiTynHa4X1wtnZgcvo1M5SHd+IJTIg5lGHCuWxCi0DYs+O2CZM0L20hCO1VWi72ZEO7TxV8aXDayS9hUWmpwUqVihd+Kq1D42KOUpncQnATTiHzuwOlTBHLJERJX5Mt8ch0bbZ8MBtZyVjrEgiPxdp1dMdO4TzscHTCGfrSMN0sUTGFRvGUF+UvJqNqwJq0QdEsWezC9myl0IqbRM6sbukYIpYIhOKpOamYpkoZ/vsAFu0hyg8/un8v7tNHC33PerSgd2nHN4QS+Sd40KpJVFXG9Aw4BZth3Cctlid/wSQpyR8G6y2mzqThLHi6ZlRoHLIDQJ5rPQ9u8MLzsTOOGzxVn5gzWCx/T83vNWoYYQwXDxF8/PqCDYTvFIstSYF9Axsj7H/0y/f9sMUbM9UWs8ZovgrdkHcOwArPCipppNESl622Ig2Dj29iYeovgdXwfS4aqDbVl+jTQlxWvOQnvc/ymJSwt9/xENuV1hJqQMghLvxW4w+GjZWZ+pUZG8oF4/m7/+kYLJYHhNtaLupM9eK1+LX5K3ENEVWKdG6tq7X9yoUXbCrQICJyh7UeKbS+s9V4tTcdXm9MVIwvNhtst/FGSVB4rF8O3yHOvn/qhLFMJKptHrQRSEeqE3+S0XRT/a+VlszhKn4A3/gjQLfDlXxBXMFTaadQkRph7y/TT8un3Ck9dasgC8LJTNVx9dieTxEp9SL1gnkJIQwAAfz5PEFPyqBQhkvtVzLxSGe0hw/iVNzr8j/6yZYjj+wG7VpyEI0UMjm7EOzBXEyU/EiOtOICf/oXE6z6Usthcoa/Wm2El9bN4hfW7vTbHqTrvBBOYhmc3jhg2gMlySdoIu4quWfS+dEcyphtlgio7ipVYCeCpuvzWg2c0jDB2KJvMKwiDyuUwjfaUyzmYVKYN0U9qgAcIc4ADSrQEgKMYZkjBNL5F3rQ7NVunsxldZQkjBGoU+ezck9/xDb6zOH+0MSTwnhKXZajdtW8jTmTFSkk9n30vCN0cWpVZ+2L2rTo55oL5HFlr1Xq5RS+g/K07WCwq3ilZkVFhU5S8V/HSjGR4xGpUxmUyssUwEfiuUxmtuqwaObQqHlMwNvlZPwqUJB8BDdKYh0Eqfmbsa5gbZINcdbShCjaYst4pagFwXWGjXwnTg54D46UbCRtwvbiYxAWqI2lovl0ZcOFHwa4Qdx3uH1gbOCSmPU3nQeO1BpWXxzoCzQUqG1dg86jj3UxBLx68U9gbn78xW+xC6m09hFOr6ydP2mPbYJ73sbLqDD2MdJmKsgEdN3ALqKU2k34iw6i51UxCdiiTxv9B7y1eJU2rWWxBOQYknFNLFEXjU2NfcWcUTaStSjk9hNObwplshUI+NY78Q+cSot60wSJOFlsUQ+Mi4TQh7yv9C6DlukBEJ4Ruw+s3CiQff3hPj+FjCVltjhQkGXP+FLiMcvkO+x7Sax4zO2HN6yZAmCeEKwFkLtWsQmnhCcrTSVbdDnmEpLYhGMYAw7A2mIJ5gfzmdvKCbxBLMDwu0O5ieeYG5KEdPBiCeYmZTKhGLiGSplDe7y9YpbKXSLz+BEE1XMKowjL2r0CzpykkkimFNaTaUs3jmcYJIoZhTnZGFV4hsq5Z1f8HRPmqW5ia/o3SCAzR2I7+jbYobtgYgWqDQpm+F6S1A2mCPaoFubS7YoJdqh0ii5iktPtDEaPtGI9chfaha58M6fjHHi63iXqbTEC+4Qrxp9jzqOXkEKJovl8TrbbhKvuE6877AGjR07exo+EMtjPFNpiZf0FKfmrkMzR85cCbPF8hjFVFriNV3Eqbmb0Cbhs1bFF8wVJGbQDlvF0bMdEjpjOr4Wy2MQJ4r4RWtsEOdfdFc+Wy0sFQff9+ckET9pjp/EqbmXK52pgUKGYx9OEPEbbxxXRYhXcHKIDtTCMpdffVorpNJexokhulDd1Y9n7xcDCHEY95Zfu4hTaZ1YTibEYSphjlgiI2Nu4F2lsCF5BieD6EgapjscAnKtryEthDiMs0GEt/seFEmIw5TFJLFE3ik2DF0eVv8tU2mJ/iRhrAOJTEO0ScwixGFCGCZ27/kFUmFVUnvnoTINT8xhsNjFP897AjjzBCJEc9S+IfQtL0SIw9ym0BJUXsNxAlNpianISoJGkINcZGtc4pQQh+ked1HpCHIQRRS52K9xkWxCHKZzXLFUERxBNG/EKxGm0pJA0DZmNG5BeRwdBzRu1EOIw5TeGi27iDxiScTvVm+EOExjrClRHrnFyCOKKH7TuFkoIQ5TfHvm/SXKoySJ6NJumhCHKdo1N7tUeRQnke24hIYkQeUULCrk7rHkEUW00L7IFrSlEUmQqYLP8t39YBzyiOL3/P+/Hq1pQBJ0/qytmxOXQKJsu0nsIi0v4upInAKJIIyVqEfDEVsoj6kigSxBDRqN2ERZTMDhuORxBF8jnQYjtpGEKXEJ5EecTGMRGwnhy5jy2EV5EJufIgtjrF+xjA+x/FtkaSnyOJ0GIraTiuUlyKMRjUMIcAKyishjH5rQMIQce4pMLxSXtRq1aRRCCtICk7AMK/AhMphpTgghJP8rYxCmYYEDYw5GozkNSoJEBSwWl4MrbexCJxqVBIeHHJVHGGEsp1FJcHjXcYGEUY1mJUFhlgsCqUuzEgqEAiEUCAVCKBAKhBAKhBAKhBAKhBCvGO+4PHYV21mdEA8I4SI8gMccHJNxyOGR5ej1FRz3ogVdgJRMZWS68EJ0MM4KWPGNHERcuMY/xxgk0RFI8bzpktNFcMChke2qOI6OgXQEUhzVsc8D99N/rKArkOI4l+LIGyl0BlKUdpRG3uAqGaFAKBDikEAqR+pmxztOiVAgxCKBNMqemxOJSsbq3G4HKBBihUAqRLKOyOQRiUaie6Kt91MgxAKBXPubXB6RaCT6wmEKhFggkIcPqQkkM4cCIRYI5BFFgcymQAgFQoEQCoQCIYQCoUAIBUKBEAqEAiGeCWTIQTWBzKRAiA0CueKAmkBGHKJAiAUCSQ5/rhBqsj1aL5sCIRYIBOFqkQm/b86NXxw7opk5Lc2OxKJASPwCORbwHu8oy3wQYp9AmDBFyFmUBsIIYw+S6QykKGnYTnkgjHl0BVI8D1Ie2IuL6AikeEK4H1utlsdqZNANSGmUR1O0tHQ0QBk6ACGEEEIIIYQQQgghhBBCCCGEEEIIIYQQQgghRAf+D+cRaUR2vWp8AAAAAElFTkSuQmCC;rotation=-180;" vertex="1" parent="1">
          <mxGeometry x="310" y="302" width="85" height="59.71" as="geometry" />
        </mxCell>
        <mxCell id="kPs2F_dNv8uR9kxLxlrE-27" value="" style="shape=image;verticalLabelPosition=bottom;labelBackgroundColor=default;verticalAlign=top;aspect=fixed;imageAspect=0;image=data:image/png,iVBORw0KGgoAAAANSUhEUgAAAZAAAAEZCAQAAAATCbtXAAAAAnNCSVQICFXsRgQAAAAJcEhZcwAAKjsAACo7AeZ9qxYAAAAZdEVYdFNvZnR3YXJlAHd3dy5pbmtzY2FwZS5vcmeb7jwaAAARo0lEQVR42u2deZzO1R7HP48ZxowiN4xulpBdtkoLigqh0aK0SHXbRAu96r7CTbduCxVKVJeKVORWN6kwEa52kmWyJMou2Z9nCI15un8Y04xZnud7nt9yzu983uc/L/Nbvuf7eX6/3znfBSCEEEIIIYQQQgghhBBCCCGEEEIIIYQQQgghhBBCCCGEEEIIIYQQQgghhBBCCCGEEEIIIYQQQgghhBBCCCGEEEIIIYQQQog9JKMrnsIrGIauSKI5iKGchaEYh1G4ERWdPGxzLEQ4fyzCGbQ0MY6T8U4BL/4ZPZ068LnYWuDAYYTxCzrS3sQoamLpcV68D/2cOHAzbDzuwGGEsRM9aHNiDPWxqhgv3odbEj/w2mIOHEYYe9CbdidG0Ag/lODFe3FNIgeuU+KBj+qvL21PtKcl1pfixXtwueqBT8CiUg58VCL30f5Ea9piSwwv/hUt1Q79ZIwDHx2PcQ6ItnTC9jh8eAFC8kMnY1NcAgnjCZXDE+I6PbAzTh9urvJhE457PI8ynA2iGddjT9wefIv88K0EAgnjFSRzRohG3I69Av+9R36CqtgnkshkpHBWiCYMFPluGBkqJ5krPMk0pHJmiAY8LPTc7WqRWRcLnyFhZDobAkaImBCGC702jKGqJxskPtUC/IVzRHwjCWPEPjsNZb17lwtjEf7KeSK+kIx/i/31vUQ/DO4Qv2hloQ7ninhOCt4Sy2OKE0tL12G38LRr0JjzRTwlDR+I5eHY5kRP7BKeei2acc6IZ1TCbLE8nnNye/tS/Co8/Sa04bwRT6iMeWJ5OB5D2K5IXmGs8Qsu5NwR10nH1/7LAwBaY4PwMnagO+ePuErRVNpwzCSN/m5dTAv8JLyYnerpKITEpAFWCz1yD/pYdUHEYpqLf7B34Uq3L6oWlokfaf04l8SFV/714lf+y7y4sOr4RvxR9BDnk/i+aNTBq4urii/0WDcgltIlrlTawtsO53h5gZUwRyyRkcw7JI5wpXjjep331UDTMF0skfHMOyQJc61C6FMTPy40BZPFEpmYSGgxIcJU2jDC+N6/4NlymCSWyDvMOyTKyNMvvvU3/SIJY8WXPAMncKaJAoPFvvY5qvh90SEME1/2fOYdEk/8rDKVTWzA+DcV494NiUEE4lv3NoXVhbqcexKTFEwJxmqpfH36R3/Wp4lBqOy3jdN1v82IHU5iECoRGyN0jtjorHuMDDGIqvgyeDF/KlGWbAlKihLYqPFWusbpE4MIdN5RY6wR3txuXEefIPk0VMhcvdGkG6yvcIM30S8IAEtqH6hUm7ibvkFwprh6znZcYuKNpuMr5h0SDxZ5jK2/pkXFO2IQ8gqeG3G2yTdcEZ/4WzOVGISVNaBT/ay6TQziZnE030qcHoQbV+nb8HbgW4Im4VSch54YgGcxGR9jPhZjLbZhT4GxGVlYgOl4Hc9hCHqjLU4N7NNVpQ/NacFxBh86/2hph4boiYcxFctxGH8ojcNYh4/xJHqhIZICYxnrO5kl4QWxCWbixIDc/Unoin/hU2QriqKkcQDfYBSuMDz5LITHFXphnhy0X88QnhSb4X+Gp+amoBNGYQVyHRbG8SOKFXgJVxv5gxLC02K/yAzMT2fCD9KFOMXIO62JfvgI+10WxvHjEDLRH7WMerN4SewTH6NCcD9NB4o/xRbjVKPusAr64zNEPZZG4bEEfzfiDb0c3hTLYyrKB3v15lbxYt4K1DPizlJxI2Yix1dp/DmOYBZu0HqhIxXvi+Xxmg2FB69RSM1tqvk91cOz2K2JNAqOMF7WtONwBXwklsdoW7aQuyoEFJyl6b2UQQZmuf4ZntgnfCa6IqTZut6nYnk8q9k9uEoncWruZpyr3V0kow9WayyNgmMN+qKcJnarxjDW2JyPLeKg5os0uv6yuAlrDBHHsbEJAzSIUKiBJeJEiHthIS3xszgtJkOTJ8ed2GSYOI6N9bjd1w/d2lgulkdfWEoj/CDOO7zB96vujpWGiuPY+BE9OONmUBtZRv2eNMUMw8VxbMz1oSKZue8MfCONa+VlvNarVdKRg9GeVj83/auTaxqlkoHNARLHsbEdV3tkvwuwLQDrlr6tis/VelW8Jj70YOd7DzZgJRYXGOuw24Nn1lRUdd2CQdr58gWd91VvQ8QFt8zGIkzEUNyMTmhSaieLSqiL9uiDoXgN81zZr9+BXq5aMIixE56jZ2ROZbzrqCvuQyYeQTeclsDzrwa6YTDexw5Hr2yyayHkfwts9J3H6BfbeaFjux0RvI+70MzRZ14ITdAXkx0Tyhq0cMGGwY/f9hCdsgOS8DiOOOB2P+AZdHQ1yCMJbfE0VjlwrQcdX0K3JwPII0J4RmzSWS68HJyEmQm722aMQGsPbdcQj2NDwlf9NtIcm0v7ckg9kYj/GcqNEoyyOowp6OBLaHYZdMAEHEjo6r915Dfc7ioELqNS48K5B3NX7E3AvbZiOGr4bL+KGJDQs2QrzkxYHqxj4yr+VUkamMDOwzL00qYUTzKuwcIEFqETidYqx0po7nOLD3X2Qhim7FIL0UPDhJ5uWKR4P7m4S3nBfppYHq+ylqYclUqtTRP6zX1V0Zmy0FVjO2ZgiWIm4oNKr3esxuwZXtb6TlHcEtyKO7WvcBjCTfhF6e6GC8/Eev4e014c4rZNqVtEecxR2jd41JgaTRXxtFK505GCF0d2hPGB87DZ9X5DKUq7HvPRwDBbNsBnCvf5fJxHZ08xn2ihkGYj6VhXFh+InWYvBhj53hzCnQoVgv8Zx5HrYxW7UvqFmz1PkxW+PTJR3WBr1sF88R3HSlFjX2Ofqe1a1+yJ4vq39xtfn6kMHhHGmeWiTynHa4X1wtnZgcvo1M5SHd+IJTIg5lGHCuWxCi0DYs+O2CZM0L20hCO1VWi72ZEO7TxV8aXDayS9hUWmpwUqVihd+Kq1D42KOUpncQnATTiHzuwOlTBHLJERJX5Mt8ch0bbZ8MBtZyVjrEgiPxdp1dMdO4TzscHTCGfrSMN0sUTGFRvGUF+UvJqNqwJq0QdEsWezC9myl0IqbRM6sbukYIpYIhOKpOamYpkoZ/vsAFu0hyg8/un8v7tNHC33PerSgd2nHN4QS+Sd40KpJVFXG9Aw4BZth3Cctlid/wSQpyR8G6y2mzqThLHi6ZlRoHLIDQJ5rPQ9u8MLzsTOOGzxVn5gzWCx/T83vNWoYYQwXDxF8/PqCDYTvFIstSYF9Axsj7H/0y/f9sMUbM9UWs8ZovgrdkHcOwArPCipppNESl622Ig2Dj29iYeovgdXwfS4aqDbVl+jTQlxWvOQnvc/ymJSwt9/xENuV1hJqQMghLvxW4w+GjZWZ+pUZG8oF4/m7/+kYLJYHhNtaLupM9eK1+LX5K3ENEVWKdG6tq7X9yoUXbCrQICJyh7UeKbS+s9V4tTcdXm9MVIwvNhtst/FGSVB4rF8O3yHOvn/qhLFMJKptHrQRSEeqE3+S0XRT/a+VlszhKn4A3/gjQLfDlXxBXMFTaadQkRph7y/TT8un3Ck9dasgC8LJTNVx9dieTxEp9SL1gnkJIQwAAfz5PEFPyqBQhkvtVzLxSGe0hw/iVNzr8j/6yZYjj+wG7VpyEI0UMjm7EOzBXEyU/EiOtOICf/oXE6z6Usthcoa/Wm2El9bN4hfW7vTbHqTrvBBOYhmc3jhg2gMlySdoIu4quWfS+dEcyphtlgio7ipVYCeCpuvzWg2c0jDB2KJvMKwiDyuUwjfaUyzmYVKYN0U9qgAcIc4ADSrQEgKMYZkjBNL5F3rQ7NVunsxldZQkjBGoU+ezck9/xDb6zOH+0MSTwnhKXZajdtW8jTmTFSkk9n30vCN0cWpVZ+2L2rTo55oL5HFlr1Xq5RS+g/K07WCwq3ilZkVFhU5S8V/HSjGR4xGpUxmUyssUwEfiuUxmtuqwaObQqHlMwNvlZPwqUJB8BDdKYh0Eqfmbsa5gbZINcdbShCjaYst4pagFwXWGjXwnTg54D46UbCRtwvbiYxAWqI2lovl0ZcOFHwa4Qdx3uH1gbOCSmPU3nQeO1BpWXxzoCzQUqG1dg86jj3UxBLx68U9gbn78xW+xC6m09hFOr6ydP2mPbYJ73sbLqDD2MdJmKsgEdN3ALqKU2k34iw6i51UxCdiiTxv9B7y1eJU2rWWxBOQYknFNLFEXjU2NfcWcUTaStSjk9hNObwplshUI+NY78Q+cSot60wSJOFlsUQ+Mi4TQh7yv9C6DlukBEJ4Ruw+s3CiQff3hPj+FjCVltjhQkGXP+FLiMcvkO+x7Sax4zO2HN6yZAmCeEKwFkLtWsQmnhCcrTSVbdDnmEpLYhGMYAw7A2mIJ5gfzmdvKCbxBLMDwu0O5ieeYG5KEdPBiCeYmZTKhGLiGSplDe7y9YpbKXSLz+BEE1XMKowjL2r0CzpykkkimFNaTaUs3jmcYJIoZhTnZGFV4hsq5Z1f8HRPmqW5ia/o3SCAzR2I7+jbYobtgYgWqDQpm+F6S1A2mCPaoFubS7YoJdqh0ii5iktPtDEaPtGI9chfaha58M6fjHHi63iXqbTEC+4Qrxp9jzqOXkEKJovl8TrbbhKvuE6877AGjR07exo+EMtjPFNpiZf0FKfmrkMzR85cCbPF8hjFVFriNV3Eqbmb0Cbhs1bFF8wVJGbQDlvF0bMdEjpjOr4Wy2MQJ4r4RWtsEOdfdFc+Wy0sFQff9+ckET9pjp/EqbmXK52pgUKGYx9OEPEbbxxXRYhXcHKIDtTCMpdffVorpNJexokhulDd1Y9n7xcDCHEY95Zfu4hTaZ1YTibEYSphjlgiI2Nu4F2lsCF5BieD6EgapjscAnKtryEthDiMs0GEt/seFEmIw5TFJLFE3ik2DF0eVv8tU2mJ/iRhrAOJTEO0ScwixGFCGCZ27/kFUmFVUnvnoTINT8xhsNjFP897AjjzBCJEc9S+IfQtL0SIw9ym0BJUXsNxAlNpianISoJGkINcZGtc4pQQh+ked1HpCHIQRRS52K9xkWxCHKZzXLFUERxBNG/EKxGm0pJA0DZmNG5BeRwdBzRu1EOIw5TeGi27iDxiScTvVm+EOExjrClRHrnFyCOKKH7TuFkoIQ5TfHvm/SXKoySJ6NJumhCHKdo1N7tUeRQnke24hIYkQeUULCrk7rHkEUW00L7IFrSlEUmQqYLP8t39YBzyiOL3/P+/Hq1pQBJ0/qytmxOXQKJsu0nsIi0v4upInAKJIIyVqEfDEVsoj6kigSxBDRqN2ERZTMDhuORxBF8jnQYjtpGEKXEJ5EecTGMRGwnhy5jy2EV5EJufIgtjrF+xjA+x/FtkaSnyOJ0GIraTiuUlyKMRjUMIcAKyishjH5rQMIQce4pMLxSXtRq1aRRCCtICk7AMK/AhMphpTgghJP8rYxCmYYEDYw5GozkNSoJEBSwWl4MrbexCJxqVBIeHHJVHGGEsp1FJcHjXcYGEUY1mJUFhlgsCqUuzEgqEAiEUCAVCKBAKhBAKhBAKhBAKhBCvGO+4PHYV21mdEA8I4SI8gMccHJNxyOGR5ej1FRz3ogVdgJRMZWS68EJ0MM4KWPGNHERcuMY/xxgk0RFI8bzpktNFcMChke2qOI6OgXQEUhzVsc8D99N/rKArkOI4l+LIGyl0BlKUdpRG3uAqGaFAKBDikEAqR+pmxztOiVAgxCKBNMqemxOJSsbq3G4HKBBihUAqRLKOyOQRiUaie6Kt91MgxAKBXPubXB6RaCT6wmEKhFggkIcPqQkkM4cCIRYI5BFFgcymQAgFQoEQCoQCIYQCoUAIBUKBEAqEAiGeCWTIQTWBzKRAiA0CueKAmkBGHKJAiAUCSQ5/rhBqsj1aL5sCIRYIBOFqkQm/b86NXxw7opk5Lc2OxKJASPwCORbwHu8oy3wQYp9AmDBFyFmUBsIIYw+S6QykKGnYTnkgjHl0BVI8D1Ie2IuL6AikeEK4H1utlsdqZNANSGmUR1O0tHQ0QBk6ACGEEEIIIYQQQgghhBBCCCGEEEIIIYQQQgghRAf+D+cRaUR2vWp8AAAAAElFTkSuQmCC;rotation=-180;" vertex="1" parent="1">
          <mxGeometry x="424.09000000000003" y="301.99999999999994" width="85" height="59.71" as="geometry" />
        </mxCell>
        <mxCell id="kPs2F_dNv8uR9kxLxlrE-28" value="" style="shape=image;verticalLabelPosition=bottom;labelBackgroundColor=default;verticalAlign=top;aspect=fixed;imageAspect=0;image=data:image/png,iVBORw0KGgoAAAANSUhEUgAAAZAAAAEZCAQAAAATCbtXAAAAAnNCSVQICFXsRgQAAAAJcEhZcwAAKjsAACo7AeZ9qxYAAAAZdEVYdFNvZnR3YXJlAHd3dy5pbmtzY2FwZS5vcmeb7jwaAAARo0lEQVR42u2deZzO1R7HP48ZxowiN4xulpBdtkoLigqh0aK0SHXbRAu96r7CTbduCxVKVJeKVORWN6kwEa52kmWyJMou2Z9nCI15un8Y04xZnud7nt9yzu983uc/L/Nbvuf7eX6/3znfBSCEEEIIIYQQQgghhBBCCCGEEEIIIYQQQgghhBBCCCGEEEIIIYQQQgghhBBCCCGEEEIIIYQQQgghhBBCCCGEEEIIIYQQQog9JKMrnsIrGIauSKI5iKGchaEYh1G4ERWdPGxzLEQ4fyzCGbQ0MY6T8U4BL/4ZPZ068LnYWuDAYYTxCzrS3sQoamLpcV68D/2cOHAzbDzuwGGEsRM9aHNiDPWxqhgv3odbEj/w2mIOHEYYe9CbdidG0Ag/lODFe3FNIgeuU+KBj+qvL21PtKcl1pfixXtwueqBT8CiUg58VCL30f5Ea9piSwwv/hUt1Q79ZIwDHx2PcQ6ItnTC9jh8eAFC8kMnY1NcAgnjCZXDE+I6PbAzTh9urvJhE457PI8ynA2iGddjT9wefIv88K0EAgnjFSRzRohG3I69Av+9R36CqtgnkshkpHBWiCYMFPluGBkqJ5krPMk0pHJmiAY8LPTc7WqRWRcLnyFhZDobAkaImBCGC702jKGqJxskPtUC/IVzRHwjCWPEPjsNZb17lwtjEf7KeSK+kIx/i/31vUQ/DO4Qv2hloQ7ninhOCt4Sy2OKE0tL12G38LRr0JjzRTwlDR+I5eHY5kRP7BKeei2acc6IZ1TCbLE8nnNye/tS/Co8/Sa04bwRT6iMeWJ5OB5D2K5IXmGs8Qsu5NwR10nH1/7LAwBaY4PwMnagO+ePuErRVNpwzCSN/m5dTAv8JLyYnerpKITEpAFWCz1yD/pYdUHEYpqLf7B34Uq3L6oWlokfaf04l8SFV/714lf+y7y4sOr4RvxR9BDnk/i+aNTBq4urii/0WDcgltIlrlTawtsO53h5gZUwRyyRkcw7JI5wpXjjep331UDTMF0skfHMOyQJc61C6FMTPy40BZPFEpmYSGgxIcJU2jDC+N6/4NlymCSWyDvMOyTKyNMvvvU3/SIJY8WXPAMncKaJAoPFvvY5qvh90SEME1/2fOYdEk/8rDKVTWzA+DcV494NiUEE4lv3NoXVhbqcexKTFEwJxmqpfH36R3/Wp4lBqOy3jdN1v82IHU5iECoRGyN0jtjorHuMDDGIqvgyeDF/KlGWbAlKihLYqPFWusbpE4MIdN5RY6wR3txuXEefIPk0VMhcvdGkG6yvcIM30S8IAEtqH6hUm7ibvkFwprh6znZcYuKNpuMr5h0SDxZ5jK2/pkXFO2IQ8gqeG3G2yTdcEZ/4WzOVGISVNaBT/ay6TQziZnE030qcHoQbV+nb8HbgW4Im4VSch54YgGcxGR9jPhZjLbZhT4GxGVlYgOl4Hc9hCHqjLU4N7NNVpQ/NacFxBh86/2hph4boiYcxFctxGH8ojcNYh4/xJHqhIZICYxnrO5kl4QWxCWbixIDc/Unoin/hU2QriqKkcQDfYBSuMDz5LITHFXphnhy0X88QnhSb4X+Gp+amoBNGYQVyHRbG8SOKFXgJVxv5gxLC02K/yAzMT2fCD9KFOMXIO62JfvgI+10WxvHjEDLRH7WMerN4SewTH6NCcD9NB4o/xRbjVKPusAr64zNEPZZG4bEEfzfiDb0c3hTLYyrKB3v15lbxYt4K1DPizlJxI2Yix1dp/DmOYBZu0HqhIxXvi+Xxmg2FB69RSM1tqvk91cOz2K2JNAqOMF7WtONwBXwklsdoW7aQuyoEFJyl6b2UQQZmuf4ZntgnfCa6IqTZut6nYnk8q9k9uEoncWruZpyr3V0kow9WayyNgmMN+qKcJnarxjDW2JyPLeKg5os0uv6yuAlrDBHHsbEJAzSIUKiBJeJEiHthIS3xszgtJkOTJ8ed2GSYOI6N9bjd1w/d2lgulkdfWEoj/CDOO7zB96vujpWGiuPY+BE9OONmUBtZRv2eNMUMw8VxbMz1oSKZue8MfCONa+VlvNarVdKRg9GeVj83/auTaxqlkoHNARLHsbEdV3tkvwuwLQDrlr6tis/VelW8Jj70YOd7DzZgJRYXGOuw24Nn1lRUdd2CQdr58gWd91VvQ8QFt8zGIkzEUNyMTmhSaieLSqiL9uiDoXgN81zZr9+BXq5aMIixE56jZ2ROZbzrqCvuQyYeQTeclsDzrwa6YTDexw5Hr2yyayHkfwts9J3H6BfbeaFjux0RvI+70MzRZ14ITdAXkx0Tyhq0cMGGwY/f9hCdsgOS8DiOOOB2P+AZdHQ1yCMJbfE0VjlwrQcdX0K3JwPII0J4RmzSWS68HJyEmQm722aMQGsPbdcQj2NDwlf9NtIcm0v7ckg9kYj/GcqNEoyyOowp6OBLaHYZdMAEHEjo6r915Dfc7ioELqNS48K5B3NX7E3AvbZiOGr4bL+KGJDQs2QrzkxYHqxj4yr+VUkamMDOwzL00qYUTzKuwcIEFqETidYqx0po7nOLD3X2Qhim7FIL0UPDhJ5uWKR4P7m4S3nBfppYHq+ylqYclUqtTRP6zX1V0Zmy0FVjO2ZgiWIm4oNKr3esxuwZXtb6TlHcEtyKO7WvcBjCTfhF6e6GC8/Eev4e014c4rZNqVtEecxR2jd41JgaTRXxtFK505GCF0d2hPGB87DZ9X5DKUq7HvPRwDBbNsBnCvf5fJxHZ08xn2ihkGYj6VhXFh+InWYvBhj53hzCnQoVgv8Zx5HrYxW7UvqFmz1PkxW+PTJR3WBr1sF88R3HSlFjX2Ofqe1a1+yJ4vq39xtfn6kMHhHGmeWiTynHa4X1wtnZgcvo1M5SHd+IJTIg5lGHCuWxCi0DYs+O2CZM0L20hCO1VWi72ZEO7TxV8aXDayS9hUWmpwUqVihd+Kq1D42KOUpncQnATTiHzuwOlTBHLJERJX5Mt8ch0bbZ8MBtZyVjrEgiPxdp1dMdO4TzscHTCGfrSMN0sUTGFRvGUF+UvJqNqwJq0QdEsWezC9myl0IqbRM6sbukYIpYIhOKpOamYpkoZ/vsAFu0hyg8/un8v7tNHC33PerSgd2nHN4QS+Sd40KpJVFXG9Aw4BZth3Cctlid/wSQpyR8G6y2mzqThLHi6ZlRoHLIDQJ5rPQ9u8MLzsTOOGzxVn5gzWCx/T83vNWoYYQwXDxF8/PqCDYTvFIstSYF9Axsj7H/0y/f9sMUbM9UWs8ZovgrdkHcOwArPCipppNESl622Ig2Dj29iYeovgdXwfS4aqDbVl+jTQlxWvOQnvc/ymJSwt9/xENuV1hJqQMghLvxW4w+GjZWZ+pUZG8oF4/m7/+kYLJYHhNtaLupM9eK1+LX5K3ENEVWKdG6tq7X9yoUXbCrQICJyh7UeKbS+s9V4tTcdXm9MVIwvNhtst/FGSVB4rF8O3yHOvn/qhLFMJKptHrQRSEeqE3+S0XRT/a+VlszhKn4A3/gjQLfDlXxBXMFTaadQkRph7y/TT8un3Ck9dasgC8LJTNVx9dieTxEp9SL1gnkJIQwAAfz5PEFPyqBQhkvtVzLxSGe0hw/iVNzr8j/6yZYjj+wG7VpyEI0UMjm7EOzBXEyU/EiOtOICf/oXE6z6Usthcoa/Wm2El9bN4hfW7vTbHqTrvBBOYhmc3jhg2gMlySdoIu4quWfS+dEcyphtlgio7ipVYCeCpuvzWg2c0jDB2KJvMKwiDyuUwjfaUyzmYVKYN0U9qgAcIc4ADSrQEgKMYZkjBNL5F3rQ7NVunsxldZQkjBGoU+ezck9/xDb6zOH+0MSTwnhKXZajdtW8jTmTFSkk9n30vCN0cWpVZ+2L2rTo55oL5HFlr1Xq5RS+g/K07WCwq3ilZkVFhU5S8V/HSjGR4xGpUxmUyssUwEfiuUxmtuqwaObQqHlMwNvlZPwqUJB8BDdKYh0Eqfmbsa5gbZINcdbShCjaYst4pagFwXWGjXwnTg54D46UbCRtwvbiYxAWqI2lovl0ZcOFHwa4Qdx3uH1gbOCSmPU3nQeO1BpWXxzoCzQUqG1dg86jj3UxBLx68U9gbn78xW+xC6m09hFOr6ydP2mPbYJ73sbLqDD2MdJmKsgEdN3ALqKU2k34iw6i51UxCdiiTxv9B7y1eJU2rWWxBOQYknFNLFEXjU2NfcWcUTaStSjk9hNObwplshUI+NY78Q+cSot60wSJOFlsUQ+Mi4TQh7yv9C6DlukBEJ4Ruw+s3CiQff3hPj+FjCVltjhQkGXP+FLiMcvkO+x7Sax4zO2HN6yZAmCeEKwFkLtWsQmnhCcrTSVbdDnmEpLYhGMYAw7A2mIJ5gfzmdvKCbxBLMDwu0O5ieeYG5KEdPBiCeYmZTKhGLiGSplDe7y9YpbKXSLz+BEE1XMKowjL2r0CzpykkkimFNaTaUs3jmcYJIoZhTnZGFV4hsq5Z1f8HRPmqW5ia/o3SCAzR2I7+jbYobtgYgWqDQpm+F6S1A2mCPaoFubS7YoJdqh0ii5iktPtDEaPtGI9chfaha58M6fjHHi63iXqbTEC+4Qrxp9jzqOXkEKJovl8TrbbhKvuE6877AGjR07exo+EMtjPFNpiZf0FKfmrkMzR85cCbPF8hjFVFriNV3Eqbmb0Cbhs1bFF8wVJGbQDlvF0bMdEjpjOr4Wy2MQJ4r4RWtsEOdfdFc+Wy0sFQff9+ckET9pjp/EqbmXK52pgUKGYx9OEPEbbxxXRYhXcHKIDtTCMpdffVorpNJexokhulDd1Y9n7xcDCHEY95Zfu4hTaZ1YTibEYSphjlgiI2Nu4F2lsCF5BieD6EgapjscAnKtryEthDiMs0GEt/seFEmIw5TFJLFE3ik2DF0eVv8tU2mJ/iRhrAOJTEO0ScwixGFCGCZ27/kFUmFVUnvnoTINT8xhsNjFP897AjjzBCJEc9S+IfQtL0SIw9ym0BJUXsNxAlNpianISoJGkINcZGtc4pQQh+ked1HpCHIQRRS52K9xkWxCHKZzXLFUERxBNG/EKxGm0pJA0DZmNG5BeRwdBzRu1EOIw5TeGi27iDxiScTvVm+EOExjrClRHrnFyCOKKH7TuFkoIQ5TfHvm/SXKoySJ6NJumhCHKdo1N7tUeRQnke24hIYkQeUULCrk7rHkEUW00L7IFrSlEUmQqYLP8t39YBzyiOL3/P+/Hq1pQBJ0/qytmxOXQKJsu0nsIi0v4upInAKJIIyVqEfDEVsoj6kigSxBDRqN2ERZTMDhuORxBF8jnQYjtpGEKXEJ5EecTGMRGwnhy5jy2EV5EJufIgtjrF+xjA+x/FtkaSnyOJ0GIraTiuUlyKMRjUMIcAKyishjH5rQMIQce4pMLxSXtRq1aRRCCtICk7AMK/AhMphpTgghJP8rYxCmYYEDYw5GozkNSoJEBSwWl4MrbexCJxqVBIeHHJVHGGEsp1FJcHjXcYGEUY1mJUFhlgsCqUuzEgqEAiEUCAVCKBAKhBAKhBAKhBAKhBCvGO+4PHYV21mdEA8I4SI8gMccHJNxyOGR5ej1FRz3ogVdgJRMZWS68EJ0MM4KWPGNHERcuMY/xxgk0RFI8bzpktNFcMChke2qOI6OgXQEUhzVsc8D99N/rKArkOI4l+LIGyl0BlKUdpRG3uAqGaFAKBDikEAqR+pmxztOiVAgxCKBNMqemxOJSsbq3G4HKBBihUAqRLKOyOQRiUaie6Kt91MgxAKBXPubXB6RaCT6wmEKhFggkIcPqQkkM4cCIRYI5BFFgcymQAgFQoEQCoQCIYQCoUAIBUKBEAqEAiGeCWTIQTWBzKRAiA0CueKAmkBGHKJAiAUCSQ5/rhBqsj1aL5sCIRYIBOFqkQm/b86NXxw7opk5Lc2OxKJASPwCORbwHu8oy3wQYp9AmDBFyFmUBsIIYw+S6QykKGnYTnkgjHl0BVI8D1Ie2IuL6AikeEK4H1utlsdqZNANSGmUR1O0tHQ0QBk6ACGEEEIIIYQQQgghhBBCCCGEEEIIIYQQQgghRAf+D+cRaUR2vWp8AAAAAElFTkSuQmCC;rotation=-180;" vertex="1" parent="1">
          <mxGeometry x="540" y="301" width="85" height="59.71" as="geometry" />
        </mxCell>
        <mxCell id="kPs2F_dNv8uR9kxLxlrE-29" value="" style="shape=image;verticalLabelPosition=bottom;labelBackgroundColor=default;verticalAlign=top;aspect=fixed;imageAspect=0;image=data:image/png,iVBORw0KGgoAAAANSUhEUgAAAZAAAAEZCAQAAAATCbtXAAAAAnNCSVQICFXsRgQAAAAJcEhZcwAAKjsAACo7AeZ9qxYAAAAZdEVYdFNvZnR3YXJlAHd3dy5pbmtzY2FwZS5vcmeb7jwaAAARo0lEQVR42u2deZzO1R7HP48ZxowiN4xulpBdtkoLigqh0aK0SHXbRAu96r7CTbduCxVKVJeKVORWN6kwEa52kmWyJMou2Z9nCI15un8Y04xZnud7nt9yzu983uc/L/Nbvuf7eX6/3znfBSCEEEIIIYQQQgghhBBCCCGEEEIIIYQQQgghhBBCCCGEEEIIIYQQQgghhBBCCCGEEEIIIYQQQgghhBBCCCGEEEIIIYQQQog9JKMrnsIrGIauSKI5iKGchaEYh1G4ERWdPGxzLEQ4fyzCGbQ0MY6T8U4BL/4ZPZ068LnYWuDAYYTxCzrS3sQoamLpcV68D/2cOHAzbDzuwGGEsRM9aHNiDPWxqhgv3odbEj/w2mIOHEYYe9CbdidG0Ag/lODFe3FNIgeuU+KBj+qvL21PtKcl1pfixXtwueqBT8CiUg58VCL30f5Ea9piSwwv/hUt1Q79ZIwDHx2PcQ6ItnTC9jh8eAFC8kMnY1NcAgnjCZXDE+I6PbAzTh9urvJhE457PI8ynA2iGddjT9wefIv88K0EAgnjFSRzRohG3I69Av+9R36CqtgnkshkpHBWiCYMFPluGBkqJ5krPMk0pHJmiAY8LPTc7WqRWRcLnyFhZDobAkaImBCGC702jKGqJxskPtUC/IVzRHwjCWPEPjsNZb17lwtjEf7KeSK+kIx/i/31vUQ/DO4Qv2hloQ7ninhOCt4Sy2OKE0tL12G38LRr0JjzRTwlDR+I5eHY5kRP7BKeei2acc6IZ1TCbLE8nnNye/tS/Co8/Sa04bwRT6iMeWJ5OB5D2K5IXmGs8Qsu5NwR10nH1/7LAwBaY4PwMnagO+ePuErRVNpwzCSN/m5dTAv8JLyYnerpKITEpAFWCz1yD/pYdUHEYpqLf7B34Uq3L6oWlokfaf04l8SFV/714lf+y7y4sOr4RvxR9BDnk/i+aNTBq4urii/0WDcgltIlrlTawtsO53h5gZUwRyyRkcw7JI5wpXjjep331UDTMF0skfHMOyQJc61C6FMTPy40BZPFEpmYSGgxIcJU2jDC+N6/4NlymCSWyDvMOyTKyNMvvvU3/SIJY8WXPAMncKaJAoPFvvY5qvh90SEME1/2fOYdEk/8rDKVTWzA+DcV494NiUEE4lv3NoXVhbqcexKTFEwJxmqpfH36R3/Wp4lBqOy3jdN1v82IHU5iECoRGyN0jtjorHuMDDGIqvgyeDF/KlGWbAlKihLYqPFWusbpE4MIdN5RY6wR3txuXEefIPk0VMhcvdGkG6yvcIM30S8IAEtqH6hUm7ibvkFwprh6znZcYuKNpuMr5h0SDxZ5jK2/pkXFO2IQ8gqeG3G2yTdcEZ/4WzOVGISVNaBT/ay6TQziZnE030qcHoQbV+nb8HbgW4Im4VSch54YgGcxGR9jPhZjLbZhT4GxGVlYgOl4Hc9hCHqjLU4N7NNVpQ/NacFxBh86/2hph4boiYcxFctxGH8ojcNYh4/xJHqhIZICYxnrO5kl4QWxCWbixIDc/Unoin/hU2QriqKkcQDfYBSuMDz5LITHFXphnhy0X88QnhSb4X+Gp+amoBNGYQVyHRbG8SOKFXgJVxv5gxLC02K/yAzMT2fCD9KFOMXIO62JfvgI+10WxvHjEDLRH7WMerN4SewTH6NCcD9NB4o/xRbjVKPusAr64zNEPZZG4bEEfzfiDb0c3hTLYyrKB3v15lbxYt4K1DPizlJxI2Yix1dp/DmOYBZu0HqhIxXvi+Xxmg2FB69RSM1tqvk91cOz2K2JNAqOMF7WtONwBXwklsdoW7aQuyoEFJyl6b2UQQZmuf4ZntgnfCa6IqTZut6nYnk8q9k9uEoncWruZpyr3V0kow9WayyNgmMN+qKcJnarxjDW2JyPLeKg5os0uv6yuAlrDBHHsbEJAzSIUKiBJeJEiHthIS3xszgtJkOTJ8ed2GSYOI6N9bjd1w/d2lgulkdfWEoj/CDOO7zB96vujpWGiuPY+BE9OONmUBtZRv2eNMUMw8VxbMz1oSKZue8MfCONa+VlvNarVdKRg9GeVj83/auTaxqlkoHNARLHsbEdV3tkvwuwLQDrlr6tis/VelW8Jj70YOd7DzZgJRYXGOuw24Nn1lRUdd2CQdr58gWd91VvQ8QFt8zGIkzEUNyMTmhSaieLSqiL9uiDoXgN81zZr9+BXq5aMIixE56jZ2ROZbzrqCvuQyYeQTeclsDzrwa6YTDexw5Hr2yyayHkfwts9J3H6BfbeaFjux0RvI+70MzRZ14ITdAXkx0Tyhq0cMGGwY/f9hCdsgOS8DiOOOB2P+AZdHQ1yCMJbfE0VjlwrQcdX0K3JwPII0J4RmzSWS68HJyEmQm722aMQGsPbdcQj2NDwlf9NtIcm0v7ckg9kYj/GcqNEoyyOowp6OBLaHYZdMAEHEjo6r915Dfc7ioELqNS48K5B3NX7E3AvbZiOGr4bL+KGJDQs2QrzkxYHqxj4yr+VUkamMDOwzL00qYUTzKuwcIEFqETidYqx0po7nOLD3X2Qhim7FIL0UPDhJ5uWKR4P7m4S3nBfppYHq+ylqYclUqtTRP6zX1V0Zmy0FVjO2ZgiWIm4oNKr3esxuwZXtb6TlHcEtyKO7WvcBjCTfhF6e6GC8/Eev4e014c4rZNqVtEecxR2jd41JgaTRXxtFK505GCF0d2hPGB87DZ9X5DKUq7HvPRwDBbNsBnCvf5fJxHZ08xn2ihkGYj6VhXFh+InWYvBhj53hzCnQoVgv8Zx5HrYxW7UvqFmz1PkxW+PTJR3WBr1sF88R3HSlFjX2Ofqe1a1+yJ4vq39xtfn6kMHhHGmeWiTynHa4X1wtnZgcvo1M5SHd+IJTIg5lGHCuWxCi0DYs+O2CZM0L20hCO1VWi72ZEO7TxV8aXDayS9hUWmpwUqVihd+Kq1D42KOUpncQnATTiHzuwOlTBHLJERJX5Mt8ch0bbZ8MBtZyVjrEgiPxdp1dMdO4TzscHTCGfrSMN0sUTGFRvGUF+UvJqNqwJq0QdEsWezC9myl0IqbRM6sbukYIpYIhOKpOamYpkoZ/vsAFu0hyg8/un8v7tNHC33PerSgd2nHN4QS+Sd40KpJVFXG9Aw4BZth3Cctlid/wSQpyR8G6y2mzqThLHi6ZlRoHLIDQJ5rPQ9u8MLzsTOOGzxVn5gzWCx/T83vNWoYYQwXDxF8/PqCDYTvFIstSYF9Axsj7H/0y/f9sMUbM9UWs8ZovgrdkHcOwArPCipppNESl622Ig2Dj29iYeovgdXwfS4aqDbVl+jTQlxWvOQnvc/ymJSwt9/xENuV1hJqQMghLvxW4w+GjZWZ+pUZG8oF4/m7/+kYLJYHhNtaLupM9eK1+LX5K3ENEVWKdG6tq7X9yoUXbCrQICJyh7UeKbS+s9V4tTcdXm9MVIwvNhtst/FGSVB4rF8O3yHOvn/qhLFMJKptHrQRSEeqE3+S0XRT/a+VlszhKn4A3/gjQLfDlXxBXMFTaadQkRph7y/TT8un3Ck9dasgC8LJTNVx9dieTxEp9SL1gnkJIQwAAfz5PEFPyqBQhkvtVzLxSGe0hw/iVNzr8j/6yZYjj+wG7VpyEI0UMjm7EOzBXEyU/EiOtOICf/oXE6z6Usthcoa/Wm2El9bN4hfW7vTbHqTrvBBOYhmc3jhg2gMlySdoIu4quWfS+dEcyphtlgio7ipVYCeCpuvzWg2c0jDB2KJvMKwiDyuUwjfaUyzmYVKYN0U9qgAcIc4ADSrQEgKMYZkjBNL5F3rQ7NVunsxldZQkjBGoU+ezck9/xDb6zOH+0MSTwnhKXZajdtW8jTmTFSkk9n30vCN0cWpVZ+2L2rTo55oL5HFlr1Xq5RS+g/K07WCwq3ilZkVFhU5S8V/HSjGR4xGpUxmUyssUwEfiuUxmtuqwaObQqHlMwNvlZPwqUJB8BDdKYh0Eqfmbsa5gbZINcdbShCjaYst4pagFwXWGjXwnTg54D46UbCRtwvbiYxAWqI2lovl0ZcOFHwa4Qdx3uH1gbOCSmPU3nQeO1BpWXxzoCzQUqG1dg86jj3UxBLx68U9gbn78xW+xC6m09hFOr6ydP2mPbYJ73sbLqDD2MdJmKsgEdN3ALqKU2k34iw6i51UxCdiiTxv9B7y1eJU2rWWxBOQYknFNLFEXjU2NfcWcUTaStSjk9hNObwplshUI+NY78Q+cSot60wSJOFlsUQ+Mi4TQh7yv9C6DlukBEJ4Ruw+s3CiQff3hPj+FjCVltjhQkGXP+FLiMcvkO+x7Sax4zO2HN6yZAmCeEKwFkLtWsQmnhCcrTSVbdDnmEpLYhGMYAw7A2mIJ5gfzmdvKCbxBLMDwu0O5ieeYG5KEdPBiCeYmZTKhGLiGSplDe7y9YpbKXSLz+BEE1XMKowjL2r0CzpykkkimFNaTaUs3jmcYJIoZhTnZGFV4hsq5Z1f8HRPmqW5ia/o3SCAzR2I7+jbYobtgYgWqDQpm+F6S1A2mCPaoFubS7YoJdqh0ii5iktPtDEaPtGI9chfaha58M6fjHHi63iXqbTEC+4Qrxp9jzqOXkEKJovl8TrbbhKvuE6877AGjR07exo+EMtjPFNpiZf0FKfmrkMzR85cCbPF8hjFVFriNV3Eqbmb0Cbhs1bFF8wVJGbQDlvF0bMdEjpjOr4Wy2MQJ4r4RWtsEOdfdFc+Wy0sFQff9+ckET9pjp/EqbmXK52pgUKGYx9OEPEbbxxXRYhXcHKIDtTCMpdffVorpNJexokhulDd1Y9n7xcDCHEY95Zfu4hTaZ1YTibEYSphjlgiI2Nu4F2lsCF5BieD6EgapjscAnKtryEthDiMs0GEt/seFEmIw5TFJLFE3ik2DF0eVv8tU2mJ/iRhrAOJTEO0ScwixGFCGCZ27/kFUmFVUnvnoTINT8xhsNjFP897AjjzBCJEc9S+IfQtL0SIw9ym0BJUXsNxAlNpianISoJGkINcZGtc4pQQh+ked1HpCHIQRRS52K9xkWxCHKZzXLFUERxBNG/EKxGm0pJA0DZmNG5BeRwdBzRu1EOIw5TeGi27iDxiScTvVm+EOExjrClRHrnFyCOKKH7TuFkoIQ5TfHvm/SXKoySJ6NJumhCHKdo1N7tUeRQnke24hIYkQeUULCrk7rHkEUW00L7IFrSlEUmQqYLP8t39YBzyiOL3/P+/Hq1pQBJ0/qytmxOXQKJsu0nsIi0v4upInAKJIIyVqEfDEVsoj6kigSxBDRqN2ERZTMDhuORxBF8jnQYjtpGEKXEJ5EecTGMRGwnhy5jy2EV5EJufIgtjrF+xjA+x/FtkaSnyOJ0GIraTiuUlyKMRjUMIcAKyishjH5rQMIQce4pMLxSXtRq1aRRCCtICk7AMK/AhMphpTgghJP8rYxCmYYEDYw5GozkNSoJEBSwWl4MrbexCJxqVBIeHHJVHGGEsp1FJcHjXcYGEUY1mJUFhlgsCqUuzEgqEAiEUCAVCKBAKhBAKhBAKhBAKhBCvGO+4PHYV21mdEA8I4SI8gMccHJNxyOGR5ej1FRz3ogVdgJRMZWS68EJ0MM4KWPGNHERcuMY/xxgk0RFI8bzpktNFcMChke2qOI6OgXQEUhzVsc8D99N/rKArkOI4l+LIGyl0BlKUdpRG3uAqGaFAKBDikEAqR+pmxztOiVAgxCKBNMqemxOJSsbq3G4HKBBihUAqRLKOyOQRiUaie6Kt91MgxAKBXPubXB6RaCT6wmEKhFggkIcPqQkkM4cCIRYI5BFFgcymQAgFQoEQCoQCIYQCoUAIBUKBEAqEAiGeCWTIQTWBzKRAiA0CueKAmkBGHKJAiAUCSQ5/rhBqsj1aL5sCIRYIBOFqkQm/b86NXxw7opk5Lc2OxKJASPwCORbwHu8oy3wQYp9AmDBFyFmUBsIIYw+S6QykKGnYTnkgjHl0BVI8D1Ie2IuL6AikeEK4H1utlsdqZNANSGmUR1O0tHQ0QBk6ACGEEEIIIYQQQgghhBBCCCGEEEIIIYQQQgghRAf+D+cRaUR2vWp8AAAAAElFTkSuQmCC;rotation=-180;" vertex="1" parent="1">
          <mxGeometry x="654.09" y="300.99999999999994" width="85" height="59.71" as="geometry" />
        </mxCell>
      </root>
    </mxGraphModel>
  </diagram>
</mxfile>
